<svg xmlns="http://www.w3.org/2000/svg" width="1200" height="630" viewBox="0 0 1200 630"><title>Beaverton Plumbing Pros link preview</title><rect width="1200" height="630" fill="#343c45"/><svg x="80" y="105" width="1040" height="290" viewBox="0 0 183.84 68" preserveAspectRatio="xMinYMid meet"><path fill="#ffffff" d="M2.783203125 7.798828125H13.65625Q16.884765625 7.798828125 18.47119140625 8.06787109375Q20.0576171875 8.3369140625 21.31005859375 9.1904296875Q22.5625 10.0439453125 23.3974609375 11.46337890625Q24.232421875 12.8828125 24.232421875 14.6455078125Q24.232421875 16.556640625 23.20263671875 18.15234375Q22.1728515625 19.748046875 20.41015625 20.5458984375Q22.896484375 21.26953125 24.232421875 23.013671875Q25.568359375 24.7578125 25.568359375 27.1142578125Q25.568359375 28.9697265625 24.70556640625 30.72314453125Q23.8427734375 32.4765625 22.34912109375 33.52490234375Q20.85546875 34.5732421875 18.666015625 34.814453125Q17.29296875 34.962890625 12.0419921875 35.0H2.783203125ZM8.275390625 12.326171875V18.6162109375H11.875Q15.0849609375 18.6162109375 15.8642578125 18.5234375Q17.2744140625 18.3564453125 18.08154296875 17.54931640625Q18.888671875 16.7421875 18.888671875 15.4248046875Q18.888671875 14.1630859375 18.19287109375 13.37451171875Q17.4970703125 12.5859375 16.1240234375 12.4189453125Q15.3076171875 12.326171875 11.4296875 12.326171875ZM8.275390625 23.1435546875V30.4169921875H13.359375Q16.328125 30.4169921875 17.1259765625 30.25Q18.3505859375 30.02734375 19.12060546875 29.16455078125Q19.890625 28.3017578125 19.890625 26.8544921875Q19.890625 25.6298828125 19.296875 24.7763671875Q18.703125 23.9228515625 17.58056640625 23.533203125Q16.4580078125 23.1435546875 12.7099609375 23.1435546875ZM41.0810546875 28.728515625 46.2763671875 29.6005859375Q45.2744140625 32.4580078125 43.11279296875 33.95166015625Q40.951171875 35.4453125 37.7041015625 35.4453125Q32.564453125 35.4453125 30.0966796875 32.0869140625Q28.1484375 29.396484375 28.1484375 25.2958984375Q28.1484375 20.3974609375 30.708984375 17.62353515625Q33.26953125 14.849609375 37.1845703125 14.849609375Q41.58203125 14.849609375 44.1240234375 17.75341796875Q46.666015625 20.6572265625 46.5546875 26.650390625H33.4921875Q33.5478515625 28.9697265625 34.75390625 30.25927734375Q35.9599609375 31.548828125 37.759765625 31.548828125Q38.984375 31.548828125 39.8193359375 30.880859375Q40.654296875 30.212890625 41.0810546875 28.728515625ZM41.3779296875 23.458984375Q41.322265625 21.1953125 40.208984375 20.01708984375Q39.095703125 18.8388671875 37.5 18.8388671875Q35.79296875 18.8388671875 34.6796875 20.08203125Q33.56640625 21.3251953125 33.5849609375 23.458984375ZM54.2001953125 21.306640625 49.46875 20.453125Q50.2666015625 17.595703125 52.21484375 16.22265625Q54.1630859375 14.849609375 58.00390625 14.849609375Q61.4921875 14.849609375 63.19921875 15.67529296875Q64.90625 16.5009765625 65.60205078125 17.77197265625Q66.2978515625 19.04296875 66.2978515625 22.4384765625L66.2421875 28.5244140625Q66.2421875 31.1220703125 66.49267578125 32.35595703125Q66.7431640625 33.58984375 67.4296875 35.0H62.271484375Q62.0673828125 34.48046875 61.7705078125 33.4599609375Q61.640625 32.99609375 61.5849609375 32.84765625Q60.2490234375 34.146484375 58.7275390625 34.7958984375Q57.2060546875 35.4453125 55.48046875 35.4453125Q52.4375 35.4453125 50.68408203125 33.7939453125Q48.9306640625 32.142578125 48.9306640625 29.619140625Q48.9306640625 27.94921875 49.728515625 26.64111328125Q50.5263671875 25.3330078125 51.96435546875 24.63720703125Q53.40234375 23.94140625 56.111328125 23.421875Q59.7666015625 22.7353515625 61.1767578125 22.1416015625V21.6220703125Q61.1767578125 20.119140625 60.4345703125 19.47900390625Q59.6923828125 18.8388671875 57.6328125 18.8388671875Q56.2412109375 18.8388671875 55.4619140625 19.38623046875Q54.6826171875 19.93359375 54.2001953125 21.306640625ZM61.1767578125 25.537109375Q60.1748046875 25.87109375 58.00390625 26.3349609375Q55.8330078125 26.798828125 55.1650390625 27.244140625Q54.14453125 27.9677734375 54.14453125 29.0810546875Q54.14453125 30.17578125 54.9609375 30.9736328125Q55.77734375 31.771484375 57.0390625 31.771484375Q58.44921875 31.771484375 59.7294921875 30.84375Q60.67578125 30.138671875 60.97265625 29.1181640625Q61.1767578125 28.4501953125 61.1767578125 26.576171875ZM76.35546875 35.0 68.4140625 15.294921875H73.8876953125L77.5986328125 25.3515625L78.6748046875 28.7099609375Q79.1015625 27.4296875 79.212890625 27.021484375Q79.47265625 26.1865234375 79.76953125 25.3515625L83.517578125 15.294921875H88.8798828125L81.0498046875 35.0ZM102.982421875 28.728515625 108.177734375 29.6005859375Q107.17578125 32.4580078125 105.01416015625 33.95166015625Q102.8525390625 35.4453125 99.60546875 35.4453125Q94.4658203125 35.4453125 91.998046875 32.0869140625Q90.0498046875 29.396484375 90.0498046875 25.2958984375Q90.0498046875 20.3974609375 92.6103515625 17.62353515625Q95.1708984375 14.849609375 99.0859375 14.849609375Q103.4833984375 14.849609375 106.025390625 17.75341796875Q108.5673828125 20.6572265625 108.4560546875 26.650390625H95.3935546875Q95.44921875 28.9697265625 96.6552734375 30.25927734375Q97.861328125 31.548828125 99.6611328125 31.548828125Q100.8857421875 31.548828125 101.720703125 30.880859375Q102.5556640625 30.212890625 102.982421875 28.728515625ZM103.279296875 23.458984375Q103.2236328125 21.1953125 102.1103515625 20.01708984375Q100.9970703125 18.8388671875 99.4013671875 18.8388671875Q97.6943359375 18.8388671875 96.5810546875 20.08203125Q95.4677734375 21.3251953125 95.486328125 23.458984375ZM117.1962890625 35.0H111.982421875V15.294921875H116.8251953125V18.0966796875Q118.068359375 16.111328125 119.06103515625 15.48046875Q120.0537109375 14.849609375 121.3154296875 14.849609375Q123.0966796875 14.849609375 124.748046875 15.8330078125L123.1337890625 20.37890625Q121.81640625 19.525390625 120.6845703125 19.525390625Q119.58984375 19.525390625 118.8291015625 20.12841796875Q118.068359375 20.7314453125 117.63232421875 22.30859375Q117.1962890625 23.8857421875 117.1962890625 28.9140625ZM135.529296875 15.294921875V19.451171875H131.966796875V27.392578125Q131.966796875 29.8046875 132.06884765625 30.20361328125Q132.1708984375 30.6025390625 132.53271484375 30.8623046875Q132.89453125 31.1220703125 133.4140625 31.1220703125Q134.1376953125 31.1220703125 135.5107421875 30.62109375L135.9560546875 34.666015625Q134.1376953125 35.4453125 131.8369140625 35.4453125Q130.4267578125 35.4453125 129.294921875 34.97216796875Q128.1630859375 34.4990234375 127.63427734375 33.74755859375Q127.10546875 32.99609375 126.9013671875 31.7158203125Q126.734375 30.806640625 126.734375 28.0419921875V19.451171875H124.3408203125V15.294921875H126.734375V11.3798828125L131.966796875 8.3369140625V15.294921875ZM137.44140625 24.869140625Q137.44140625 22.271484375 138.7216796875 19.8408203125Q140.001953125 17.41015625 142.34912109375 16.1298828125Q144.6962890625 14.849609375 147.5908203125 14.849609375Q152.0625 14.849609375 154.919921875 17.75341796875Q157.77734375 20.6572265625 157.77734375 25.091796875Q157.77734375 29.5634765625 154.89208984375 32.50439453125Q152.0068359375 35.4453125 147.6279296875 35.4453125Q144.9189453125 35.4453125 142.46044921875 34.220703125Q140.001953125 32.99609375 138.7216796875 30.63037109375Q137.44140625 28.2646484375 137.44140625 24.869140625ZM142.78515625 25.1474609375Q142.78515625 28.0791015625 144.1767578125 29.6376953125Q145.568359375 31.1962890625 147.609375 31.1962890625Q149.650390625 31.1962890625 151.03271484375 29.6376953125Q152.4150390625 28.0791015625 152.4150390625 25.1103515625Q152.4150390625 22.2158203125 151.03271484375 20.6572265625Q149.650390625 19.0986328125 147.609375 19.0986328125Q145.568359375 19.0986328125 144.1767578125 20.6572265625Q142.78515625 22.2158203125 142.78515625 25.1474609375ZM179.283203125 35.0H174.0693359375V24.943359375Q174.0693359375 21.751953125 173.7353515625 20.81494140625Q173.4013671875 19.8779296875 172.64990234375 19.3583984375Q171.8984375 18.8388671875 170.8408203125 18.8388671875Q169.486328125 18.8388671875 168.41015625 19.5810546875Q167.333984375 20.3232421875 166.93505859375 21.5478515625Q166.5361328125 22.7724609375 166.5361328125 26.0751953125V35.0H161.322265625V15.294921875H166.1650390625V18.189453125Q168.744140625 14.849609375 172.6591796875 14.849609375Q174.384765625 14.849609375 175.8134765625 15.47119140625Q177.2421875 16.0927734375 177.97509765625 17.0576171875Q178.7080078125 18.0224609375 178.99560546875 19.2470703125Q179.283203125 20.4716796875 179.283203125 22.75390625Z"/><path fill="#d5e5ee" d="M1.0185546875 62.0V51.978515625H4.265625Q6.111328125 51.978515625 6.671875 52.12890625Q7.533203125 52.3544921875 8.1142578125 53.10986328125Q8.6953125 53.865234375 8.6953125 55.0615234375Q8.6953125 55.984375 8.3603515625 56.61328125Q8.025390625 57.2421875 7.50927734375 57.60107421875Q6.9931640625 57.9599609375 6.4599609375 58.076171875Q5.7353515625 58.2197265625 4.361328125 58.2197265625H3.0419921875V62.0ZM3.0419921875 53.673828125V56.517578125H4.1494140625Q5.345703125 56.517578125 5.7490234375 56.3603515625Q6.15234375 56.203125 6.38134765625 55.8681640625Q6.6103515625 55.533203125 6.6103515625 55.0888671875Q6.6103515625 54.5419921875 6.2890625 54.1865234375Q5.9677734375 53.8310546875 5.4755859375 53.7421875Q5.11328125 53.673828125 4.01953125 53.673828125ZM11.6111328125 62.0V52.060546875H13.6345703125V60.3115234375H18.6658203125V62.0ZM21.29453125 51.978515625H23.31796875V57.40625Q23.31796875 58.6982421875 23.3931640625 59.0810546875Q23.523046875 59.6962890625 24.01181640625 60.06884765625Q24.5005859375 60.44140625 25.3482421875 60.44140625Q26.2095703125 60.44140625 26.6470703125 60.08935546875Q27.0845703125 59.7373046875 27.1734375 59.224609375Q27.2623046875 58.7119140625 27.2623046875 57.5224609375V51.978515625H29.2857421875V57.2421875Q29.2857421875 59.046875 29.1216796875 59.7919921875Q28.9576171875 60.537109375 28.51669921875 61.0498046875Q28.07578125 61.5625 27.3375 61.86669921875Q26.59921875 62.1708984375 25.409765625 62.1708984375Q23.97421875 62.1708984375 23.23251953125 61.83935546875Q22.4908203125 61.5078125 22.06015625 60.97802734375Q21.6294921875 60.4482421875 21.4927734375 59.8671875Q21.29453125 59.005859375 21.29453125 57.32421875ZM32.591210937499994 62.0V51.978515625H35.619531249999994L37.437890624999994 58.814453125L39.235742187499994 51.978515625H42.270898437499994V62.0H40.391015624999994V54.111328125L38.401757812499994 62.0H36.453515624999994L34.471093749999994 54.111328125V62.0ZM45.4875 51.978515625H49.493359375Q50.6828125 51.978515625 51.26728515625 52.07763671875Q51.8517578125 52.1767578125 52.31318359375 52.4912109375Q52.774609375 52.8056640625 53.0822265625 53.32861328125Q53.38984375 53.8515625 53.38984375 54.5009765625Q53.38984375 55.205078125 53.01044921875 55.79296875Q52.6310546875 56.380859375 51.981640625 56.6748046875Q52.89765625 56.94140625 53.38984375 57.583984375Q53.88203125 58.2265625 53.88203125 59.0947265625Q53.88203125 59.7783203125 53.56416015625 60.42431640625Q53.2462890625 61.0703125 52.69599609375 61.45654296875Q52.145703125 61.8427734375 51.3390625 61.931640625Q50.833203125 61.986328125 48.8986328125 62.0H45.4875ZM47.5109375 53.646484375V55.9638671875H48.837109375Q50.0197265625 55.9638671875 50.3068359375 55.9296875Q50.8263671875 55.8681640625 51.12373046875 55.57080078125Q51.42109375 55.2734375 51.42109375 54.7880859375Q51.42109375 54.3232421875 51.16474609375 54.03271484375Q50.9083984375 53.7421875 50.4025390625 53.6806640625Q50.1017578125 53.646484375 48.673046875 53.646484375ZM47.5109375 57.6318359375V60.3115234375H49.383984375Q50.477734375 60.3115234375 50.7716796875 60.25Q51.2228515625 60.16796875 51.50654296875 59.85009765625Q51.790234375 59.5322265625 51.790234375 58.9990234375Q51.790234375 58.5478515625 51.571484375 58.2333984375Q51.352734375 57.9189453125 50.93916015625 57.775390625Q50.5255859375 57.6318359375 49.1447265625 57.6318359375ZM56.7294921875 62.0V51.978515625H58.7529296875V62.0ZM61.901171875 62.0V51.978515625H63.869921875L67.971484375 58.6708984375V51.978515625H69.8513671875V62.0H67.82109375L63.7810546875 55.46484375V62.0ZM77.853125 58.3154296875V56.626953125H82.214453125V60.619140625Q81.5787109375 61.234375 80.37216796875 61.70263671875Q79.165625 62.1708984375 77.9283203125 62.1708984375Q76.3560546875 62.1708984375 75.187109375 61.51123046875Q74.0181640625 60.8515625 73.4302734375 59.62451171875Q72.8423828125 58.3974609375 72.8423828125 56.955078125Q72.8423828125 55.3896484375 73.4986328125 54.1728515625Q74.1548828125 52.9560546875 75.41953125 52.306640625Q76.3833984375 51.8076171875 77.8189453125 51.8076171875Q79.68515625 51.8076171875 80.73447265625 52.59033203125Q81.7837890625 53.373046875 82.0845703125 54.75390625L80.0748046875 55.1298828125Q79.862890625 54.3916015625 79.27841796875 53.96435546875Q78.6939453125 53.537109375 77.8189453125 53.537109375Q76.4927734375 53.537109375 75.71005859375 54.3779296875Q74.92734375 55.21875 74.92734375 56.873046875Q74.92734375 58.6572265625 75.7203125 59.54931640625Q76.51328125 60.44140625 77.7984375 60.44140625Q78.4341796875 60.44140625 79.07333984375 60.19189453125Q79.7125 59.9423828125 80.1705078125 59.5869140625V58.3154296875ZM90.37031250000001 62.0V51.978515625H93.61738281250001Q95.46308593750001 51.978515625 96.02363281250001 52.12890625Q96.88496093750001 52.3544921875 97.46601562500001 53.10986328125Q98.04707031250001 53.865234375 98.04707031250001 55.0615234375Q98.04707031250001 55.984375 97.71210937500001 56.61328125Q97.37714843750001 57.2421875 96.86103515625001 57.60107421875Q96.34492187500001 57.9599609375 95.81171875000001 58.076171875Q95.08710937500001 58.2197265625 93.71308593750001 58.2197265625H92.39375000000001V62.0ZM92.39375000000001 53.673828125V56.517578125H93.50117187500001Q94.69746093750001 56.517578125 95.10078125000001 56.3603515625Q95.50410156250001 56.203125 95.73310546875001 55.8681640625Q95.96210937500001 55.533203125 95.96210937500001 55.0888671875Q95.96210937500001 54.5419921875 95.64082031250001 54.1865234375Q95.31953125000001 53.8310546875 94.82734375000001 53.7421875Q94.46503906250001 53.673828125 93.37128906250001 53.673828125ZM100.91503906250001 62.0V51.978515625H105.17382812500001Q106.78027343750001 51.978515625 107.50830078125001 52.24853515625Q108.23632812500001 52.5185546875 108.67382812500001 53.208984375Q109.11132812500001 53.8994140625 109.11132812500001 54.7880859375Q109.11132812500001 55.916015625 108.44824218750001 56.65087890625Q107.78515625000001 57.3857421875 106.46582031250001 57.5771484375Q107.12207031250001 57.9599609375 107.54931640625001 58.41796875Q107.97656250000001 58.8759765625 108.70117187500001 60.044921875L109.92480468750001 62.0H107.50488281250001L106.04199218750001 59.8193359375Q105.26269531250001 58.650390625 104.97558593750001 58.34619140625Q104.68847656250001 58.0419921875 104.36718750000001 57.92919921875Q104.04589843750001 57.81640625 103.34863281250001 57.81640625H102.93847656250001V62.0ZM102.93847656250001 56.216796875H104.43554687500001Q105.89160156250001 56.216796875 106.25390625000001 56.09375Q106.61621093750001 55.970703125 106.82128906250001 55.669921875Q107.02636718750001 55.369140625 107.02636718750001 54.91796875Q107.02636718750001 54.412109375 106.75634765625001 54.10107421875Q106.48632812500001 53.7900390625 105.99414062500001 53.7080078125Q105.74804687500001 53.673828125 104.51757812500001 53.673828125H102.93847656250001ZM111.80839843750002 57.05078125Q111.80839843750002 55.51953125 112.26640625000002 54.48046875Q112.60820312500002 53.71484375 113.19951171875002 53.1064453125Q113.79082031250002 52.498046875 114.49492187500002 52.2041015625Q115.43144531250002 51.8076171875 116.65507812500002 51.8076171875Q118.86992187500002 51.8076171875 120.19951171875002 53.181640625Q121.52910156250002 54.5556640625 121.52910156250002 57.0029296875Q121.52910156250002 59.4296875 120.20976562500002 60.80029296875Q118.89042968750002 62.1708984375 116.68242187500002 62.1708984375Q114.44707031250002 62.1708984375 113.12773437500002 60.80712890625Q111.80839843750002 59.443359375 111.80839843750002 57.05078125ZM113.89335937500002 56.982421875Q113.89335937500002 58.6845703125 114.67949218750002 59.56298828125Q115.46562500000002 60.44140625 116.67558593750002 60.44140625Q117.88554687500002 60.44140625 118.66142578125002 59.56982421875Q119.43730468750002 58.6982421875 119.43730468750002 56.955078125Q119.43730468750002 55.232421875 118.68193359375002 54.384765625Q117.92656250000002 53.537109375 116.67558593750002 53.537109375Q115.42460937500002 53.537109375 114.65898437500002 54.39501953125Q113.89335937500002 55.2529296875 113.89335937500002 56.982421875ZM123.79550781250002 58.7392578125 125.76425781250002 58.5478515625Q125.94199218750002 59.5390625 126.48544921875002 60.00390625Q127.02890625000002 60.46875 127.95175781250002 60.46875Q128.92929687500003 60.46875 129.42490234375003 60.05517578125Q129.92050781250003 59.6416015625 129.92050781250003 59.087890625Q129.92050781250003 58.732421875 129.71201171875003 58.48291015625Q129.50351562500003 58.2333984375 128.98398437500003 58.048828125Q128.62851562500003 57.92578125 127.36386718750002 57.611328125Q125.73691406250002 57.2080078125 125.08066406250002 56.6201171875Q124.15781250000002 55.79296875 124.15781250000002 54.603515625Q124.15781250000002 53.837890625 124.59189453125002 53.17138671875Q125.02597656250002 52.5048828125 125.84287109375002 52.15625Q126.65976562500002 51.8076171875 127.81503906250002 51.8076171875Q129.70175781250003 51.8076171875 130.65537109375003 52.634765625Q131.60898437500003 53.4619140625 131.65683593750003 54.8427734375L129.63339843750003 54.931640625Q129.50351562500003 54.1591796875 129.07626953125003 53.82080078125Q128.64902343750003 53.482421875 127.79453125000002 53.482421875Q126.91269531250002 53.482421875 126.41367187500002 53.8447265625Q126.09238281250002 54.0771484375 126.09238281250002 54.466796875Q126.09238281250002 54.822265625 126.39316406250002 55.0751953125Q126.77597656250002 55.396484375 128.25253906250003 55.7451171875Q129.72910156250003 56.09375 130.43662109375003 56.46630859375Q131.14414062500003 56.8388671875 131.54404296875003 57.48486328125Q131.94394531250003 58.130859375 131.94394531250003 59.0810546875Q131.94394531250003 59.9423828125 131.46542968750003 60.6943359375Q130.98691406250003 61.4462890625 130.11191406250003 61.81201171875Q129.23691406250003 62.177734375 127.93125000000002 62.177734375Q126.03085937500002 62.177734375 125.01230468750002 61.29931640625Q123.99375000000002 60.4208984375 123.79550781250002 58.7392578125Z"/></svg><g transform="translate(80 535)"><path fill="#d5e5ee" d="M1.845703125 0.0V-20.04296875H5.6875V-12.82421875Q7.46484375 -14.84765625 9.8984375 -14.84765625Q12.55078125 -14.84765625 14.287109375 -12.9267578125Q16.0234375 -11.005859375 16.0234375 -7.41015625Q16.0234375 -3.69140625 14.2529296875 -1.681640625Q12.482421875 0.328125 9.953125 0.328125Q8.708984375 0.328125 7.4990234375 -0.2939453125Q6.2890625 -0.916015625 5.4140625 -2.1328125V0.0ZM5.66015625 -7.57421875Q5.66015625 -5.318359375 6.37109375 -4.23828125Q7.369140625 -2.70703125 9.0234375 -2.70703125Q10.294921875 -2.70703125 11.1904296875 -3.7939453125Q12.0859375 -4.880859375 12.0859375 -7.21875Q12.0859375 -9.70703125 11.18359375 -10.8076171875Q10.28125 -11.908203125 8.873046875 -11.908203125Q7.4921875 -11.908203125 6.576171875 -10.8349609375Q5.66015625 -9.76171875 5.66015625 -7.57421875ZM27.521484375 -4.62109375 31.349609375 -3.978515625Q30.611328125 -1.873046875 29.0185546875 -0.7724609375Q27.42578125 0.328125 25.033203125 0.328125Q21.24609375 0.328125 19.427734375 -2.146484375Q17.9921875 -4.12890625 17.9921875 -7.150390625Q17.9921875 -10.759765625 19.87890625 -12.8037109375Q21.765625 -14.84765625 24.650390625 -14.84765625Q27.890625 -14.84765625 29.763671875 -12.7080078125Q31.63671875 -10.568359375 31.5546875 -6.15234375H21.9296875Q21.970703125 -4.443359375 22.859375 -3.4931640625Q23.748046875 -2.54296875 25.07421875 -2.54296875Q25.9765625 -2.54296875 26.591796875 -3.03515625Q27.20703125 -3.52734375 27.521484375 -4.62109375ZM27.740234375 -8.50390625Q27.69921875 -10.171875 26.87890625 -11.0400390625Q26.05859375 -11.908203125 24.8828125 -11.908203125Q23.625 -11.908203125 22.8046875 -10.9921875Q21.984375 -10.076171875 21.998046875 -8.50390625ZM37.556640625 -10.08984375 34.0703125 -10.71875Q34.658203125 -12.82421875 36.09375 -13.8359375Q37.529296875 -14.84765625 40.359375 -14.84765625Q42.9296875 -14.84765625 44.1875 -14.2392578125Q45.4453125 -13.630859375 45.9580078125 -12.6943359375Q46.470703125 -11.7578125 46.470703125 -9.255859375L46.4296875 -4.771484375Q46.4296875 -2.857421875 46.6142578125 -1.9482421875Q46.798828125 -1.0390625 47.3046875 0.0H43.50390625Q43.353515625 -0.3828125 43.134765625 -1.134765625Q43.0390625 -1.4765625 42.998046875 -1.5859375Q42.013671875 -0.62890625 40.892578125 -0.150390625Q39.771484375 0.328125 38.5 0.328125Q36.2578125 0.328125 34.9658203125 -0.888671875Q33.673828125 -2.10546875 33.673828125 -3.96484375Q33.673828125 -5.1953125 34.26171875 -6.1591796875Q34.849609375 -7.123046875 35.9091796875 -7.6357421875Q36.96875 -8.1484375 38.96484375 -8.53125Q41.658203125 -9.037109375 42.697265625 -9.474609375V-9.857421875Q42.697265625 -10.96484375 42.150390625 -11.4365234375Q41.603515625 -11.908203125 40.0859375 -11.908203125Q39.060546875 -11.908203125 38.486328125 -11.5048828125Q37.912109375 -11.1015625 37.556640625 -10.08984375ZM42.697265625 -6.97265625Q41.958984375 -6.7265625 40.359375 -6.384765625Q38.759765625 -6.04296875 38.267578125 -5.71484375Q37.515625 -5.181640625 37.515625 -4.361328125Q37.515625 -3.5546875 38.1171875 -2.966796875Q38.71875 -2.37890625 39.6484375 -2.37890625Q40.6875 -2.37890625 41.630859375 -3.0625Q42.328125 -3.58203125 42.546875 -4.333984375Q42.697265625 -4.826171875 42.697265625 -6.20703125ZM54.25 0.0 48.3984375 -14.51953125H52.431640625L55.166015625 -7.109375L55.958984375 -4.634765625Q56.2734375 -5.578125 56.35546875 -5.87890625Q56.546875 -6.494140625 56.765625 -7.109375L59.52734375 -14.51953125H63.478515625L57.708984375 0.0ZM74.23828125 -4.62109375 78.06640625 -3.978515625Q77.328125 -1.873046875 75.7353515625 -0.7724609375Q74.142578125 0.328125 71.75 0.328125Q67.962890625 0.328125 66.14453125 -2.146484375Q64.708984375 -4.12890625 64.708984375 -7.150390625Q64.708984375 -10.759765625 66.595703125 -12.8037109375Q68.482421875 -14.84765625 71.3671875 -14.84765625Q74.607421875 -14.84765625 76.48046875 -12.7080078125Q78.353515625 -10.568359375 78.271484375 -6.15234375H68.646484375Q68.6875 -4.443359375 69.576171875 -3.4931640625Q70.46484375 -2.54296875 71.791015625 -2.54296875Q72.693359375 -2.54296875 73.30859375 -3.03515625Q73.923828125 -3.52734375 74.23828125 -4.62109375ZM74.45703125 -8.50390625Q74.416015625 -10.171875 73.595703125 -11.0400390625Q72.775390625 -11.908203125 71.599609375 -11.908203125Q70.341796875 -11.908203125 69.521484375 -10.9921875Q68.701171875 -10.076171875 68.71484375 -8.50390625ZM85.080078125 0.0H81.23828125V-14.51953125H84.806640625V-12.455078125Q85.72265625 -13.91796875 86.4541015625 -14.3828125Q87.185546875 -14.84765625 88.115234375 -14.84765625Q89.427734375 -14.84765625 90.64453125 -14.123046875L89.455078125 -10.7734375Q88.484375 -11.40234375 87.650390625 -11.40234375Q86.84375 -11.40234375 86.283203125 -10.9580078125Q85.72265625 -10.513671875 85.4013671875 -9.3515625Q85.080078125 -8.189453125 85.080078125 -4.484375ZM98.95703125 -14.51953125V-11.45703125H96.33203125V-5.60546875Q96.33203125 -3.828125 96.4072265625 -3.5341796875Q96.482421875 -3.240234375 96.7490234375 -3.048828125Q97.015625 -2.857421875 97.3984375 -2.857421875Q97.931640625 -2.857421875 98.943359375 -3.2265625L99.271484375 -0.24609375Q97.931640625 0.328125 96.236328125 0.328125Q95.197265625 0.328125 94.36328125 -0.0205078125Q93.529296875 -0.369140625 93.1396484375 -0.9228515625Q92.75 -1.4765625 92.599609375 -2.419921875Q92.4765625 -3.08984375 92.4765625 -5.126953125V-11.45703125H90.712890625V-14.51953125H92.4765625V-17.404296875L96.33203125 -19.646484375V-14.51953125ZM100.734375 -7.46484375Q100.734375 -9.37890625 101.677734375 -11.169921875Q102.62109375 -12.9609375 104.3505859375 -13.904296875Q106.080078125 -14.84765625 108.212890625 -14.84765625Q111.5078125 -14.84765625 113.61328125 -12.7080078125Q115.71875 -10.568359375 115.71875 -7.30078125Q115.71875 -4.005859375 113.5927734375 -1.8388671875Q111.466796875 0.328125 108.240234375 0.328125Q106.244140625 0.328125 104.4326171875 -0.57421875Q102.62109375 -1.4765625 101.677734375 -3.2197265625Q100.734375 -4.962890625 100.734375 -7.46484375ZM104.671875 -7.259765625Q104.671875 -5.099609375 105.697265625 -3.951171875Q106.72265625 -2.802734375 108.2265625 -2.802734375Q109.73046875 -2.802734375 110.7490234375 -3.951171875Q111.767578125 -5.099609375 111.767578125 -7.287109375Q111.767578125 -9.419921875 110.7490234375 -10.568359375Q109.73046875 -11.716796875 108.2265625 -11.716796875Q106.72265625 -11.716796875 105.697265625 -10.568359375Q104.671875 -9.419921875 104.671875 -7.259765625ZM131.93359375 0.0H128.091796875V-7.41015625Q128.091796875 -9.76171875 127.845703125 -10.4521484375Q127.599609375 -11.142578125 127.0458984375 -11.525390625Q126.4921875 -11.908203125 125.712890625 -11.908203125Q124.71484375 -11.908203125 123.921875 -11.361328125Q123.12890625 -10.814453125 122.8349609375 -9.912109375Q122.541015625 -9.009765625 122.541015625 -6.576171875V0.0H118.69921875V-14.51953125H122.267578125V-12.38671875Q124.16796875 -14.84765625 127.052734375 -14.84765625Q128.32421875 -14.84765625 129.376953125 -14.3896484375Q130.4296875 -13.931640625 130.9697265625 -13.220703125Q131.509765625 -12.509765625 131.7216796875 -11.607421875Q131.93359375 -10.705078125 131.93359375 -9.0234375ZM135.720703125 -14.51953125H139.302734375V-12.38671875Q140.0 -13.48046875 141.189453125 -14.1640625Q142.37890625 -14.84765625 143.828125 -14.84765625Q146.357421875 -14.84765625 148.12109375 -12.865234375Q149.884765625 -10.8828125 149.884765625 -7.341796875Q149.884765625 -3.705078125 148.107421875 -1.6884765625Q146.330078125 0.328125 143.80078125 0.328125Q142.59765625 0.328125 141.6201171875 -0.150390625Q140.642578125 -0.62890625 139.5625 -1.791015625V5.5234375H135.720703125ZM139.521484375 -7.505859375Q139.521484375 -5.05859375 140.4921875 -3.8896484375Q141.462890625 -2.720703125 142.857421875 -2.720703125Q144.197265625 -2.720703125 145.0859375 -3.7939453125Q145.974609375 -4.8671875 145.974609375 -7.314453125Q145.974609375 -9.59765625 145.05859375 -10.705078125Q144.142578125 -11.8125 142.7890625 -11.8125Q141.380859375 -11.8125 140.451171875 -10.7255859375Q139.521484375 -9.638671875 139.521484375 -7.505859375ZM152.93359375 0.0V-20.04296875H156.775390625V0.0ZM170.26953125 0.0V-2.173828125Q169.4765625 -1.01171875 168.1845703125 -0.341796875Q166.892578125 0.328125 165.45703125 0.328125Q163.994140625 0.328125 162.83203125 -0.314453125Q161.669921875 -0.95703125 161.150390625 -2.119140625Q160.630859375 -3.28125 160.630859375 -5.33203125V-14.51953125H164.47265625V-7.84765625Q164.47265625 -4.78515625 164.6845703125 -4.0947265625Q164.896484375 -3.404296875 165.45703125 -3.0009765625Q166.017578125 -2.59765625 166.87890625 -2.59765625Q167.86328125 -2.59765625 168.642578125 -3.1376953125Q169.421875 -3.677734375 169.708984375 -4.4775390625Q169.99609375 -5.27734375 169.99609375 -8.39453125V-14.51953125H173.837890625V0.0ZM177.529296875 -14.51953125H181.0703125V-12.537109375Q182.970703125 -14.84765625 185.595703125 -14.84765625Q186.990234375 -14.84765625 188.015625 -14.2734375Q189.041015625 -13.69921875 189.697265625 -12.537109375Q190.654296875 -13.69921875 191.76171875 -14.2734375Q192.869140625 -14.84765625 194.126953125 -14.84765625Q195.7265625 -14.84765625 196.833984375 -14.1982421875Q197.94140625 -13.548828125 198.48828125 -12.291015625Q198.884765625 -11.361328125 198.884765625 -9.283203125V0.0H195.04296875V-8.298828125Q195.04296875 -10.458984375 194.646484375 -11.087890625Q194.11328125 -11.908203125 193.005859375 -11.908203125Q192.19921875 -11.908203125 191.48828125 -11.416015625Q190.77734375 -10.923828125 190.462890625 -9.9736328125Q190.1484375 -9.0234375 190.1484375 -6.97265625V0.0H186.306640625V-7.95703125Q186.306640625 -10.076171875 186.1015625 -10.69140625Q185.896484375 -11.306640625 185.4658203125 -11.607421875Q185.03515625 -11.908203125 184.296875 -11.908203125Q183.408203125 -11.908203125 182.697265625 -11.4296875Q181.986328125 -10.951171875 181.6787109375 -10.048828125Q181.37109375 -9.146484375 181.37109375 -7.0546875V0.0H177.529296875ZM202.548828125 0.0V-20.04296875H206.390625V-12.82421875Q208.16796875 -14.84765625 210.6015625 -14.84765625Q213.25390625 -14.84765625 214.990234375 -12.9267578125Q216.7265625 -11.005859375 216.7265625 -7.41015625Q216.7265625 -3.69140625 214.9560546875 -1.681640625Q213.185546875 0.328125 210.65625 0.328125Q209.412109375 0.328125 208.2021484375 -0.2939453125Q206.9921875 -0.916015625 206.1171875 -2.1328125V0.0ZM206.36328125 -7.57421875Q206.36328125 -5.318359375 207.07421875 -4.23828125Q208.072265625 -2.70703125 209.7265625 -2.70703125Q210.998046875 -2.70703125 211.8935546875 -3.7939453125Q212.7890625 -4.880859375 212.7890625 -7.21875Q212.7890625 -9.70703125 211.88671875 -10.8076171875Q210.984375 -11.908203125 209.576171875 -11.908203125Q208.1953125 -11.908203125 207.279296875 -10.8349609375Q206.36328125 -9.76171875 206.36328125 -7.57421875ZM219.81640625 -16.48828125V-20.04296875H223.658203125V-16.48828125ZM219.81640625 0.0V-14.51953125H223.658203125V0.0ZM240.802734375 0.0H236.9609375V-7.41015625Q236.9609375 -9.76171875 236.71484375 -10.4521484375Q236.46875 -11.142578125 235.9150390625 -11.525390625Q235.361328125 -11.908203125 234.58203125 -11.908203125Q233.583984375 -11.908203125 232.791015625 -11.361328125Q231.998046875 -10.814453125 231.7041015625 -9.912109375Q231.41015625 -9.009765625 231.41015625 -6.576171875V0.0H227.568359375V-14.51953125H231.13671875V-12.38671875Q233.037109375 -14.84765625 235.921875 -14.84765625Q237.193359375 -14.84765625 238.24609375 -14.3896484375Q239.298828125 -13.931640625 239.8388671875 -13.220703125Q240.37890625 -12.509765625 240.5908203125 -11.607421875Q240.802734375 -10.705078125 240.802734375 -9.0234375ZM244.34375 0.95703125 248.732421875 1.490234375Q248.841796875 2.255859375 249.23828125 2.54296875Q249.78515625 2.953125 250.9609375 2.953125Q252.46484375 2.953125 253.216796875 2.501953125Q253.72265625 2.201171875 253.982421875 1.53125Q254.16015625 1.052734375 254.16015625 -0.232421875V-2.3515625Q252.4375 0.0 249.8125 0.0Q246.88671875 0.0 245.177734375 -2.474609375Q243.837890625 -4.4296875 243.837890625 -7.341796875Q243.837890625 -10.9921875 245.5947265625 -12.919921875Q247.3515625 -14.84765625 249.962890625 -14.84765625Q252.65625 -14.84765625 254.40625 -12.482421875V-14.51953125H258.001953125V-1.490234375Q258.001953125 1.080078125 257.578125 2.3515625Q257.154296875 3.623046875 256.388671875 4.34765625Q255.623046875 5.072265625 254.3447265625 5.482421875Q253.06640625 5.892578125 251.111328125 5.892578125Q247.419921875 5.892578125 245.875 4.6279296875Q244.330078125 3.36328125 244.330078125 1.421875Q244.330078125 1.23046875 244.34375 0.95703125ZM247.775390625 -7.560546875Q247.775390625 -5.25 248.6708984375 -4.1767578125Q249.56640625 -3.103515625 250.87890625 -3.103515625Q252.287109375 -3.103515625 253.2578125 -4.2041015625Q254.228515625 -5.3046875 254.228515625 -7.46484375Q254.228515625 -9.720703125 253.298828125 -10.814453125Q252.369140625 -11.908203125 250.947265625 -11.908203125Q249.56640625 -11.908203125 248.6708984375 -10.8349609375Q247.775390625 -9.76171875 247.775390625 -7.560546875ZM261.693359375 -14.51953125H265.275390625V-12.38671875Q265.97265625 -13.48046875 267.162109375 -14.1640625Q268.3515625 -14.84765625 269.80078125 -14.84765625Q272.330078125 -14.84765625 274.09375 -12.865234375Q275.857421875 -10.8828125 275.857421875 -7.341796875Q275.857421875 -3.705078125 274.080078125 -1.6884765625Q272.302734375 0.328125 269.7734375 0.328125Q268.5703125 0.328125 267.5927734375 -0.150390625Q266.615234375 -0.62890625 265.53515625 -1.791015625V5.5234375H261.693359375ZM265.494140625 -7.505859375Q265.494140625 -5.05859375 266.46484375 -3.8896484375Q267.435546875 -2.720703125 268.830078125 -2.720703125Q270.169921875 -2.720703125 271.05859375 -3.7939453125Q271.947265625 -4.8671875 271.947265625 -7.314453125Q271.947265625 -9.59765625 271.03125 -10.705078125Q270.115234375 -11.8125 268.76171875 -11.8125Q267.353515625 -11.8125 266.423828125 -10.7255859375Q265.494140625 -9.638671875 265.494140625 -7.505859375ZM282.583984375 0.0H278.7421875V-14.51953125H282.310546875V-12.455078125Q283.2265625 -13.91796875 283.9580078125 -14.3828125Q284.689453125 -14.84765625 285.619140625 -14.84765625Q286.931640625 -14.84765625 288.1484375 -14.123046875L286.958984375 -10.7734375Q285.98828125 -11.40234375 285.154296875 -11.40234375Q284.34765625 -11.40234375 283.787109375 -10.9580078125Q283.2265625 -10.513671875 282.9052734375 -9.3515625Q282.583984375 -8.189453125 282.583984375 -4.484375ZM288.9140625 -7.46484375Q288.9140625 -9.37890625 289.857421875 -11.169921875Q290.80078125 -12.9609375 292.5302734375 -13.904296875Q294.259765625 -14.84765625 296.392578125 -14.84765625Q299.6875 -14.84765625 301.79296875 -12.7080078125Q303.8984375 -10.568359375 303.8984375 -7.30078125Q303.8984375 -4.005859375 301.7724609375 -1.8388671875Q299.646484375 0.328125 296.419921875 0.328125Q294.423828125 0.328125 292.6123046875 -0.57421875Q290.80078125 -1.4765625 289.857421875 -3.2197265625Q288.9140625 -4.962890625 288.9140625 -7.46484375ZM292.8515625 -7.259765625Q292.8515625 -5.099609375 293.876953125 -3.951171875Q294.90234375 -2.802734375 296.40625 -2.802734375Q297.91015625 -2.802734375 298.9287109375 -3.951171875Q299.947265625 -5.099609375 299.947265625 -7.287109375Q299.947265625 -9.419921875 298.9287109375 -10.568359375Q297.91015625 -11.716796875 296.40625 -11.716796875Q294.90234375 -11.716796875 293.876953125 -10.568359375Q292.8515625 -9.419921875 292.8515625 -7.259765625ZM305.552734375 -4.142578125 309.408203125 -4.73046875Q309.654296875 -3.609375 310.40625 -3.0283203125Q311.158203125 -2.447265625 312.51171875 -2.447265625Q314.001953125 -2.447265625 314.75390625 -2.994140625Q315.259765625 -3.376953125 315.259765625 -4.01953125Q315.259765625 -4.45703125 314.986328125 -4.744140625Q314.69921875 -5.017578125 313.701171875 -5.25Q309.052734375 -6.275390625 307.80859375 -7.123046875Q306.0859375 -8.298828125 306.0859375 -10.390625Q306.0859375 -12.27734375 307.576171875 -13.5625Q309.06640625 -14.84765625 312.197265625 -14.84765625Q315.177734375 -14.84765625 316.626953125 -13.876953125Q318.076171875 -12.90625 318.623046875 -11.005859375L315.0 -10.3359375Q314.767578125 -11.18359375 314.1181640625 -11.634765625Q313.46875 -12.0859375 312.265625 -12.0859375Q310.748046875 -12.0859375 310.091796875 -11.662109375Q309.654296875 -11.361328125 309.654296875 -10.8828125Q309.654296875 -10.47265625 310.037109375 -10.185546875Q310.556640625 -9.802734375 313.6259765625 -9.10546875Q316.6953125 -8.408203125 317.912109375 -7.396484375Q319.115234375 -6.37109375 319.115234375 -4.5390625Q319.115234375 -2.54296875 317.447265625 -1.107421875Q315.779296875 0.328125 312.51171875 0.328125Q309.544921875 0.328125 307.8154296875 -0.875Q306.0859375 -2.078125 305.552734375 -4.142578125ZM322.478515625 0.0V-3.841796875H326.3203125V0.0ZM342.91796875 -10.2265625 339.130859375 -9.54296875Q338.939453125 -10.677734375 338.2626953125 -11.251953125Q337.5859375 -11.826171875 336.505859375 -11.826171875Q335.0703125 -11.826171875 334.2158203125 -10.8349609375Q333.361328125 -9.84375 333.361328125 -7.51953125Q333.361328125 -4.935546875 334.2294921875 -3.869140625Q335.09765625 -2.802734375 336.560546875 -2.802734375Q337.654296875 -2.802734375 338.3515625 -3.4248046875Q339.048828125 -4.046875 339.3359375 -5.564453125L343.109375 -4.921875Q342.521484375 -2.32421875 340.853515625 -0.998046875Q339.185546875 0.328125 336.3828125 0.328125Q333.197265625 0.328125 331.3037109375 -1.681640625Q329.41015625 -3.69140625 329.41015625 -7.24609375Q329.41015625 -10.841796875 331.310546875 -12.8447265625Q333.2109375 -14.84765625 336.451171875 -14.84765625Q339.103515625 -14.84765625 340.6689453125 -13.7060546875Q342.234375 -12.564453125 342.91796875 -10.2265625ZM348.701171875 -10.08984375 345.21484375 -10.71875Q345.802734375 -12.82421875 347.23828125 -13.8359375Q348.673828125 -14.84765625 351.50390625 -14.84765625Q354.07421875 -14.84765625 355.33203125 -14.2392578125Q356.58984375 -13.630859375 357.1025390625 -12.6943359375Q357.615234375 -11.7578125 357.615234375 -9.255859375L357.57421875 -4.771484375Q357.57421875 -2.857421875 357.7587890625 -1.9482421875Q357.943359375 -1.0390625 358.44921875 0.0H354.6484375Q354.498046875 -0.3828125 354.279296875 -1.134765625Q354.18359375 -1.4765625 354.142578125 -1.5859375Q353.158203125 -0.62890625 352.037109375 -0.150390625Q350.916015625 0.328125 349.64453125 0.328125Q347.40234375 0.328125 346.1103515625 -0.888671875Q344.818359375 -2.10546875 344.818359375 -3.96484375Q344.818359375 -5.1953125 345.40625 -6.1591796875Q345.994140625 -7.123046875 347.0537109375 -7.6357421875Q348.11328125 -8.1484375 350.109375 -8.53125Q352.802734375 -9.037109375 353.841796875 -9.474609375V-9.857421875Q353.841796875 -10.96484375 353.294921875 -11.4365234375Q352.748046875 -11.908203125 351.23046875 -11.908203125Q350.205078125 -11.908203125 349.630859375 -11.5048828125Q349.056640625 -11.1015625 348.701171875 -10.08984375ZM353.841796875 -6.97265625Q353.103515625 -6.7265625 351.50390625 -6.384765625Q349.904296875 -6.04296875 349.412109375 -5.71484375Q348.66015625 -5.181640625 348.66015625 -4.361328125Q348.66015625 -3.5546875 349.26171875 -2.966796875Q349.86328125 -2.37890625 350.79296875 -2.37890625Q351.83203125 -2.37890625 352.775390625 -3.0625Q353.47265625 -3.58203125 353.69140625 -4.333984375Q353.841796875 -4.826171875 353.841796875 -6.20703125Z"/></g></svg>
