<svg xmlns="http://www.w3.org/2000/svg" width="1200" height="630" viewBox="0 0 1200 630"><title>East Gwillimbury Plumbing Pros link preview</title><rect width="1200" height="630" fill="#34394c"/><svg x="80" y="105" width="1040" height="290" viewBox="0 0 302.8 68" preserveAspectRatio="xMinYMid meet"><path fill="#ffffff" d="M2.7646484375 35.0V7.798828125H22.93359375V12.400390625H8.2568359375V18.4306640625H21.9130859375V23.013671875H8.2568359375V30.4169921875H23.453125V35.0ZM31.4697265625 21.306640625 26.73828125 20.453125Q27.5361328125 17.595703125 29.484375 16.22265625Q31.4326171875 14.849609375 35.2734375 14.849609375Q38.76171875 14.849609375 40.46875 15.67529296875Q42.17578125 16.5009765625 42.87158203125 17.77197265625Q43.5673828125 19.04296875 43.5673828125 22.4384765625L43.51171875 28.5244140625Q43.51171875 31.1220703125 43.76220703125 32.35595703125Q44.0126953125 33.58984375 44.69921875 35.0H39.541015625Q39.3369140625 34.48046875 39.0400390625 33.4599609375Q38.91015625 32.99609375 38.8544921875 32.84765625Q37.5185546875 34.146484375 35.9970703125 34.7958984375Q34.4755859375 35.4453125 32.75 35.4453125Q29.70703125 35.4453125 27.95361328125 33.7939453125Q26.2001953125 32.142578125 26.2001953125 29.619140625Q26.2001953125 27.94921875 26.998046875 26.64111328125Q27.7958984375 25.3330078125 29.23388671875 24.63720703125Q30.671875 23.94140625 33.380859375 23.421875Q37.0361328125 22.7353515625 38.4462890625 22.1416015625V21.6220703125Q38.4462890625 20.119140625 37.7041015625 19.47900390625Q36.9619140625 18.8388671875 34.90234375 18.8388671875Q33.5107421875 18.8388671875 32.7314453125 19.38623046875Q31.9521484375 19.93359375 31.4697265625 21.306640625ZM38.4462890625 25.537109375Q37.4443359375 25.87109375 35.2734375 26.3349609375Q33.1025390625 26.798828125 32.4345703125 27.244140625Q31.4140625 27.9677734375 31.4140625 29.0810546875Q31.4140625 30.17578125 32.23046875 30.9736328125Q33.046875 31.771484375 34.30859375 31.771484375Q35.71875 31.771484375 36.9990234375 30.84375Q37.9453125 30.138671875 38.2421875 29.1181640625Q38.4462890625 28.4501953125 38.4462890625 26.576171875ZM46.3701171875 29.3779296875 51.6025390625 28.580078125Q51.9365234375 30.1015625 52.95703125 30.89013671875Q53.9775390625 31.6787109375 55.814453125 31.6787109375Q57.8369140625 31.6787109375 58.857421875 30.9365234375Q59.5439453125 30.4169921875 59.5439453125 29.544921875Q59.5439453125 28.951171875 59.1728515625 28.5615234375Q58.783203125 28.1904296875 57.4287109375 27.875Q51.1201171875 26.4833984375 49.431640625 25.3330078125Q47.09375 23.7373046875 47.09375 20.8984375Q47.09375 18.337890625 49.1162109375 16.59375Q51.138671875 14.849609375 55.3876953125 14.849609375Q59.4326171875 14.849609375 61.3994140625 16.1669921875Q63.3662109375 17.484375 64.1083984375 20.0634765625L59.19140625 20.97265625Q58.8759765625 19.822265625 57.99462890625 19.2099609375Q57.11328125 18.59765625 55.48046875 18.59765625Q53.4208984375 18.59765625 52.5302734375 19.1728515625Q51.9365234375 19.5810546875 51.9365234375 20.23046875Q51.9365234375 20.787109375 52.4560546875 21.1767578125Q53.1611328125 21.6962890625 57.32666015625 22.642578125Q61.4921875 23.5888671875 63.1435546875 24.9619140625Q64.7763671875 26.353515625 64.7763671875 28.83984375Q64.7763671875 31.548828125 62.5126953125 33.4970703125Q60.2490234375 35.4453125 55.814453125 35.4453125Q51.7880859375 35.4453125 49.44091796875 33.8125Q47.09375 32.1796875 46.3701171875 29.3779296875ZM77.876953125 15.294921875V19.451171875H74.314453125V27.392578125Q74.314453125 29.8046875 74.41650390625 30.20361328125Q74.5185546875 30.6025390625 74.88037109375 30.8623046875Q75.2421875 31.1220703125 75.76171875 31.1220703125Q76.4853515625 31.1220703125 77.8583984375 30.62109375L78.3037109375 34.666015625Q76.4853515625 35.4453125 74.1845703125 35.4453125Q72.7744140625 35.4453125 71.642578125 34.97216796875Q70.5107421875 34.4990234375 69.98193359375 33.74755859375Q69.453125 32.99609375 69.2490234375 31.7158203125Q69.08203125 30.806640625 69.08203125 28.0419921875V19.451171875H66.6884765625V15.294921875H69.08203125V11.3798828125L74.314453125 8.3369140625V15.294921875ZM103.744140625 24.9990234375V20.416015625H115.58203125V31.251953125Q113.8564453125 32.921875 110.58154296875 34.19287109375Q107.306640625 35.4638671875 103.9482421875 35.4638671875Q99.6806640625 35.4638671875 96.5078125 33.67333984375Q93.3349609375 31.8828125 91.7392578125 28.55224609375Q90.1435546875 25.2216796875 90.1435546875 21.306640625Q90.1435546875 17.0576171875 91.9248046875 13.7548828125Q93.7060546875 10.4521484375 97.138671875 8.689453125Q99.7548828125 7.3349609375 103.6513671875 7.3349609375Q108.716796875 7.3349609375 111.56494140625 9.45947265625Q114.4130859375 11.583984375 115.2294921875 15.33203125L109.7744140625 16.3525390625Q109.19921875 14.3486328125 107.61279296875 13.18896484375Q106.0263671875 12.029296875 103.6513671875 12.029296875Q100.0517578125 12.029296875 97.92724609375 14.3115234375Q95.802734375 16.59375 95.802734375 21.083984375Q95.802734375 25.9267578125 97.955078125 28.34814453125Q100.107421875 30.76953125 103.595703125 30.76953125Q105.3212890625 30.76953125 107.05615234375 30.09228515625Q108.791015625 29.4150390625 110.0341796875 28.4501953125V24.9990234375ZM123.7841796875 35.0 117.5498046875 15.294921875H122.615234375L126.3076171875 28.208984375L129.703125 15.294921875H134.7314453125L138.015625 28.208984375L141.7822265625 15.294921875H146.921875L140.5947265625 35.0H135.5849609375L132.189453125 22.3271484375L128.849609375 35.0ZM149.16796875 12.623046875V7.798828125H154.3818359375V12.623046875ZM149.16796875 35.0V15.294921875H154.3818359375V35.0ZM159.2255859375 35.0V7.798828125H164.439453125V35.0ZM169.283203125 35.0V7.798828125H174.4970703125V35.0ZM179.3408203125 12.623046875V7.798828125H184.5546875V12.623046875ZM179.3408203125 35.0V15.294921875H184.5546875V35.0ZM189.0087890625 15.294921875H193.814453125V17.9853515625Q196.3935546875 14.849609375 199.9560546875 14.849609375Q201.8486328125 14.849609375 203.240234375 15.62890625Q204.6318359375 16.408203125 205.5224609375 17.9853515625Q206.8212890625 16.408203125 208.32421875 15.62890625Q209.8271484375 14.849609375 211.5341796875 14.849609375Q213.705078125 14.849609375 215.2080078125 15.73095703125Q216.7109375 16.6123046875 217.453125 18.3193359375Q217.9912109375 19.5810546875 217.9912109375 22.4013671875V35.0H212.77734375V23.7373046875Q212.77734375 20.8056640625 212.2392578125 19.9521484375Q211.515625 18.8388671875 210.0126953125 18.8388671875Q208.91796875 18.8388671875 207.953125 19.5068359375Q206.98828125 20.1748046875 206.5615234375 21.46435546875Q206.134765625 22.75390625 206.134765625 25.537109375V35.0H200.9208984375V24.201171875Q200.9208984375 21.3251953125 200.642578125 20.490234375Q200.3642578125 19.6552734375 199.77978515625 19.2470703125Q199.1953125 18.8388671875 198.193359375 18.8388671875Q196.9873046875 18.8388671875 196.0224609375 19.48828125Q195.0576171875 20.1376953125 194.64013671875 21.3623046875Q194.22265625 22.5869140625 194.22265625 25.42578125V35.0H189.0087890625ZM222.4638671875 35.0V7.798828125H227.677734375V17.595703125Q230.08984375 14.849609375 233.392578125 14.849609375Q236.9921875 14.849609375 239.3486328125 17.45654296875Q241.705078125 20.0634765625 241.705078125 24.943359375Q241.705078125 29.990234375 239.30224609375 32.7177734375Q236.8994140625 35.4453125 233.466796875 35.4453125Q231.7783203125 35.4453125 230.13623046875 34.60107421875Q228.494140625 33.7568359375 227.306640625 32.10546875V35.0ZM227.640625 24.720703125Q227.640625 27.7822265625 228.60546875 29.248046875Q229.9599609375 31.326171875 232.205078125 31.326171875Q233.9306640625 31.326171875 235.14599609375 29.85107421875Q236.361328125 28.3759765625 236.361328125 25.203125Q236.361328125 21.826171875 235.13671875 20.33251953125Q233.912109375 18.8388671875 232.0009765625 18.8388671875Q230.126953125 18.8388671875 228.8837890625 20.29541015625Q227.640625 21.751953125 227.640625 24.720703125ZM258.3681640625 35.0V32.0498046875Q257.2919921875 33.626953125 255.53857421875 34.5361328125Q253.78515625 35.4453125 251.8369140625 35.4453125Q249.8515625 35.4453125 248.2744140625 34.5732421875Q246.697265625 33.701171875 245.9921875 32.1240234375Q245.287109375 30.546875 245.287109375 27.763671875V15.294921875H250.5009765625V24.349609375Q250.5009765625 28.505859375 250.78857421875 29.44287109375Q251.076171875 30.3798828125 251.8369140625 30.92724609375Q252.59765625 31.474609375 253.7666015625 31.474609375Q255.1025390625 31.474609375 256.16015625 30.74169921875Q257.2177734375 30.0087890625 257.607421875 28.92333984375Q257.9970703125 27.837890625 257.9970703125 23.607421875V15.294921875H263.2109375V35.0ZM273.1015625 35.0H267.8876953125V15.294921875H272.73046875V18.0966796875Q273.9736328125 16.111328125 274.96630859375 15.48046875Q275.958984375 14.849609375 277.220703125 14.849609375Q279.001953125 14.849609375 280.6533203125 15.8330078125L279.0390625 20.37890625Q277.7216796875 19.525390625 276.58984375 19.525390625Q275.4951171875 19.525390625 274.734375 20.12841796875Q273.9736328125 20.7314453125 273.53759765625 22.30859375Q273.1015625 23.8857421875 273.1015625 28.9140625ZM279.9306640625 15.294921875H285.478515625L290.19140625 29.28515625L294.79296875 15.294921875H300.1923828125L293.234375 34.2578125L291.9912109375 37.6904296875Q291.3046875 39.416015625 290.68310546875 40.3251953125Q290.0615234375 41.234375 289.25439453125 41.80029296875Q288.447265625 42.3662109375 287.26904296875 42.681640625Q286.0908203125 42.9970703125 284.6064453125 42.9970703125Q283.103515625 42.9970703125 281.65625 42.681640625L281.1923828125 38.599609375Q282.4169921875 38.8408203125 283.400390625 38.8408203125Q285.21875 38.8408203125 286.0908203125 37.77392578125Q286.962890625 36.70703125 287.4267578125 35.0556640625Z"/><path fill="#d5e5ee" d="M1.0185546875 62.0V51.978515625H4.265625Q6.111328125 51.978515625 6.671875 52.12890625Q7.533203125 52.3544921875 8.1142578125 53.10986328125Q8.6953125 53.865234375 8.6953125 55.0615234375Q8.6953125 55.984375 8.3603515625 56.61328125Q8.025390625 57.2421875 7.50927734375 57.60107421875Q6.9931640625 57.9599609375 6.4599609375 58.076171875Q5.7353515625 58.2197265625 4.361328125 58.2197265625H3.0419921875V62.0ZM3.0419921875 53.673828125V56.517578125H4.1494140625Q5.345703125 56.517578125 5.7490234375 56.3603515625Q6.15234375 56.203125 6.38134765625 55.8681640625Q6.6103515625 55.533203125 6.6103515625 55.0888671875Q6.6103515625 54.5419921875 6.2890625 54.1865234375Q5.9677734375 53.8310546875 5.4755859375 53.7421875Q5.11328125 53.673828125 4.01953125 53.673828125ZM11.6111328125 62.0V52.060546875H13.6345703125V60.3115234375H18.6658203125V62.0ZM21.29453125 51.978515625H23.31796875V57.40625Q23.31796875 58.6982421875 23.3931640625 59.0810546875Q23.523046875 59.6962890625 24.01181640625 60.06884765625Q24.5005859375 60.44140625 25.3482421875 60.44140625Q26.2095703125 60.44140625 26.6470703125 60.08935546875Q27.0845703125 59.7373046875 27.1734375 59.224609375Q27.2623046875 58.7119140625 27.2623046875 57.5224609375V51.978515625H29.2857421875V57.2421875Q29.2857421875 59.046875 29.1216796875 59.7919921875Q28.9576171875 60.537109375 28.51669921875 61.0498046875Q28.07578125 61.5625 27.3375 61.86669921875Q26.59921875 62.1708984375 25.409765625 62.1708984375Q23.97421875 62.1708984375 23.23251953125 61.83935546875Q22.4908203125 61.5078125 22.06015625 60.97802734375Q21.6294921875 60.4482421875 21.4927734375 59.8671875Q21.29453125 59.005859375 21.29453125 57.32421875ZM32.591210937499994 62.0V51.978515625H35.619531249999994L37.437890624999994 58.814453125L39.235742187499994 51.978515625H42.270898437499994V62.0H40.391015624999994V54.111328125L38.401757812499994 62.0H36.453515624999994L34.471093749999994 54.111328125V62.0ZM45.4875 51.978515625H49.493359375Q50.6828125 51.978515625 51.26728515625 52.07763671875Q51.8517578125 52.1767578125 52.31318359375 52.4912109375Q52.774609375 52.8056640625 53.0822265625 53.32861328125Q53.38984375 53.8515625 53.38984375 54.5009765625Q53.38984375 55.205078125 53.01044921875 55.79296875Q52.6310546875 56.380859375 51.981640625 56.6748046875Q52.89765625 56.94140625 53.38984375 57.583984375Q53.88203125 58.2265625 53.88203125 59.0947265625Q53.88203125 59.7783203125 53.56416015625 60.42431640625Q53.2462890625 61.0703125 52.69599609375 61.45654296875Q52.145703125 61.8427734375 51.3390625 61.931640625Q50.833203125 61.986328125 48.8986328125 62.0H45.4875ZM47.5109375 53.646484375V55.9638671875H48.837109375Q50.0197265625 55.9638671875 50.3068359375 55.9296875Q50.8263671875 55.8681640625 51.12373046875 55.57080078125Q51.42109375 55.2734375 51.42109375 54.7880859375Q51.42109375 54.3232421875 51.16474609375 54.03271484375Q50.9083984375 53.7421875 50.4025390625 53.6806640625Q50.1017578125 53.646484375 48.673046875 53.646484375ZM47.5109375 57.6318359375V60.3115234375H49.383984375Q50.477734375 60.3115234375 50.7716796875 60.25Q51.2228515625 60.16796875 51.50654296875 59.85009765625Q51.790234375 59.5322265625 51.790234375 58.9990234375Q51.790234375 58.5478515625 51.571484375 58.2333984375Q51.352734375 57.9189453125 50.93916015625 57.775390625Q50.5255859375 57.6318359375 49.1447265625 57.6318359375ZM56.7294921875 62.0V51.978515625H58.7529296875V62.0ZM61.901171875 62.0V51.978515625H63.869921875L67.971484375 58.6708984375V51.978515625H69.8513671875V62.0H67.82109375L63.7810546875 55.46484375V62.0ZM77.853125 58.3154296875V56.626953125H82.214453125V60.619140625Q81.5787109375 61.234375 80.37216796875 61.70263671875Q79.165625 62.1708984375 77.9283203125 62.1708984375Q76.3560546875 62.1708984375 75.187109375 61.51123046875Q74.0181640625 60.8515625 73.4302734375 59.62451171875Q72.8423828125 58.3974609375 72.8423828125 56.955078125Q72.8423828125 55.3896484375 73.4986328125 54.1728515625Q74.1548828125 52.9560546875 75.41953125 52.306640625Q76.3833984375 51.8076171875 77.8189453125 51.8076171875Q79.68515625 51.8076171875 80.73447265625 52.59033203125Q81.7837890625 53.373046875 82.0845703125 54.75390625L80.0748046875 55.1298828125Q79.862890625 54.3916015625 79.27841796875 53.96435546875Q78.6939453125 53.537109375 77.8189453125 53.537109375Q76.4927734375 53.537109375 75.71005859375 54.3779296875Q74.92734375 55.21875 74.92734375 56.873046875Q74.92734375 58.6572265625 75.7203125 59.54931640625Q76.51328125 60.44140625 77.7984375 60.44140625Q78.4341796875 60.44140625 79.07333984375 60.19189453125Q79.7125 59.9423828125 80.1705078125 59.5869140625V58.3154296875ZM90.37031250000001 62.0V51.978515625H93.61738281250001Q95.46308593750001 51.978515625 96.02363281250001 52.12890625Q96.88496093750001 52.3544921875 97.46601562500001 53.10986328125Q98.04707031250001 53.865234375 98.04707031250001 55.0615234375Q98.04707031250001 55.984375 97.71210937500001 56.61328125Q97.37714843750001 57.2421875 96.86103515625001 57.60107421875Q96.34492187500001 57.9599609375 95.81171875000001 58.076171875Q95.08710937500001 58.2197265625 93.71308593750001 58.2197265625H92.39375000000001V62.0ZM92.39375000000001 53.673828125V56.517578125H93.50117187500001Q94.69746093750001 56.517578125 95.10078125000001 56.3603515625Q95.50410156250001 56.203125 95.73310546875001 55.8681640625Q95.96210937500001 55.533203125 95.96210937500001 55.0888671875Q95.96210937500001 54.5419921875 95.64082031250001 54.1865234375Q95.31953125000001 53.8310546875 94.82734375000001 53.7421875Q94.46503906250001 53.673828125 93.37128906250001 53.673828125ZM100.91503906250001 62.0V51.978515625H105.17382812500001Q106.78027343750001 51.978515625 107.50830078125001 52.24853515625Q108.23632812500001 52.5185546875 108.67382812500001 53.208984375Q109.11132812500001 53.8994140625 109.11132812500001 54.7880859375Q109.11132812500001 55.916015625 108.44824218750001 56.65087890625Q107.78515625000001 57.3857421875 106.46582031250001 57.5771484375Q107.12207031250001 57.9599609375 107.54931640625001 58.41796875Q107.97656250000001 58.8759765625 108.70117187500001 60.044921875L109.92480468750001 62.0H107.50488281250001L106.04199218750001 59.8193359375Q105.26269531250001 58.650390625 104.97558593750001 58.34619140625Q104.68847656250001 58.0419921875 104.36718750000001 57.92919921875Q104.04589843750001 57.81640625 103.34863281250001 57.81640625H102.93847656250001V62.0ZM102.93847656250001 56.216796875H104.43554687500001Q105.89160156250001 56.216796875 106.25390625000001 56.09375Q106.61621093750001 55.970703125 106.82128906250001 55.669921875Q107.02636718750001 55.369140625 107.02636718750001 54.91796875Q107.02636718750001 54.412109375 106.75634765625001 54.10107421875Q106.48632812500001 53.7900390625 105.99414062500001 53.7080078125Q105.74804687500001 53.673828125 104.51757812500001 53.673828125H102.93847656250001ZM111.80839843750002 57.05078125Q111.80839843750002 55.51953125 112.26640625000002 54.48046875Q112.60820312500002 53.71484375 113.19951171875002 53.1064453125Q113.79082031250002 52.498046875 114.49492187500002 52.2041015625Q115.43144531250002 51.8076171875 116.65507812500002 51.8076171875Q118.86992187500002 51.8076171875 120.19951171875002 53.181640625Q121.52910156250002 54.5556640625 121.52910156250002 57.0029296875Q121.52910156250002 59.4296875 120.20976562500002 60.80029296875Q118.89042968750002 62.1708984375 116.68242187500002 62.1708984375Q114.44707031250002 62.1708984375 113.12773437500002 60.80712890625Q111.80839843750002 59.443359375 111.80839843750002 57.05078125ZM113.89335937500002 56.982421875Q113.89335937500002 58.6845703125 114.67949218750002 59.56298828125Q115.46562500000002 60.44140625 116.67558593750002 60.44140625Q117.88554687500002 60.44140625 118.66142578125002 59.56982421875Q119.43730468750002 58.6982421875 119.43730468750002 56.955078125Q119.43730468750002 55.232421875 118.68193359375002 54.384765625Q117.92656250000002 53.537109375 116.67558593750002 53.537109375Q115.42460937500002 53.537109375 114.65898437500002 54.39501953125Q113.89335937500002 55.2529296875 113.89335937500002 56.982421875ZM123.79550781250002 58.7392578125 125.76425781250002 58.5478515625Q125.94199218750002 59.5390625 126.48544921875002 60.00390625Q127.02890625000002 60.46875 127.95175781250002 60.46875Q128.92929687500003 60.46875 129.42490234375003 60.05517578125Q129.92050781250003 59.6416015625 129.92050781250003 59.087890625Q129.92050781250003 58.732421875 129.71201171875003 58.48291015625Q129.50351562500003 58.2333984375 128.98398437500003 58.048828125Q128.62851562500003 57.92578125 127.36386718750002 57.611328125Q125.73691406250002 57.2080078125 125.08066406250002 56.6201171875Q124.15781250000002 55.79296875 124.15781250000002 54.603515625Q124.15781250000002 53.837890625 124.59189453125002 53.17138671875Q125.02597656250002 52.5048828125 125.84287109375002 52.15625Q126.65976562500002 51.8076171875 127.81503906250002 51.8076171875Q129.70175781250003 51.8076171875 130.65537109375003 52.634765625Q131.60898437500003 53.4619140625 131.65683593750003 54.8427734375L129.63339843750003 54.931640625Q129.50351562500003 54.1591796875 129.07626953125003 53.82080078125Q128.64902343750003 53.482421875 127.79453125000002 53.482421875Q126.91269531250002 53.482421875 126.41367187500002 53.8447265625Q126.09238281250002 54.0771484375 126.09238281250002 54.466796875Q126.09238281250002 54.822265625 126.39316406250002 55.0751953125Q126.77597656250002 55.396484375 128.25253906250003 55.7451171875Q129.72910156250003 56.09375 130.43662109375003 56.46630859375Q131.14414062500003 56.8388671875 131.54404296875003 57.48486328125Q131.94394531250003 58.130859375 131.94394531250003 59.0810546875Q131.94394531250003 59.9423828125 131.46542968750003 60.6943359375Q130.98691406250003 61.4462890625 130.11191406250003 61.81201171875Q129.23691406250003 62.177734375 127.93125000000002 62.177734375Q126.03085937500002 62.177734375 125.01230468750002 61.29931640625Q123.99375000000002 60.4208984375 123.79550781250002 58.7392578125Z"/></svg><g transform="translate(80 535)"><path fill="#d5e5ee" d="M10.41796875 -4.62109375 14.24609375 -3.978515625Q13.5078125 -1.873046875 11.9150390625 -0.7724609375Q10.322265625 0.328125 7.9296875 0.328125Q4.142578125 0.328125 2.32421875 -2.146484375Q0.888671875 -4.12890625 0.888671875 -7.150390625Q0.888671875 -10.759765625 2.775390625 -12.8037109375Q4.662109375 -14.84765625 7.546875 -14.84765625Q10.787109375 -14.84765625 12.66015625 -12.7080078125Q14.533203125 -10.568359375 14.451171875 -6.15234375H4.826171875Q4.8671875 -4.443359375 5.755859375 -3.4931640625Q6.64453125 -2.54296875 7.970703125 -2.54296875Q8.873046875 -2.54296875 9.48828125 -3.03515625Q10.103515625 -3.52734375 10.41796875 -4.62109375ZM10.63671875 -8.50390625Q10.595703125 -10.171875 9.775390625 -11.0400390625Q8.955078125 -11.908203125 7.779296875 -11.908203125Q6.521484375 -11.908203125 5.701171875 -10.9921875Q4.880859375 -10.076171875 4.89453125 -8.50390625ZM20.453125 -10.08984375 16.966796875 -10.71875Q17.5546875 -12.82421875 18.990234375 -13.8359375Q20.42578125 -14.84765625 23.255859375 -14.84765625Q25.826171875 -14.84765625 27.083984375 -14.2392578125Q28.341796875 -13.630859375 28.8544921875 -12.6943359375Q29.3671875 -11.7578125 29.3671875 -9.255859375L29.326171875 -4.771484375Q29.326171875 -2.857421875 29.5107421875 -1.9482421875Q29.6953125 -1.0390625 30.201171875 0.0H26.400390625Q26.25 -0.3828125 26.03125 -1.134765625Q25.935546875 -1.4765625 25.89453125 -1.5859375Q24.91015625 -0.62890625 23.7890625 -0.150390625Q22.66796875 0.328125 21.396484375 0.328125Q19.154296875 0.328125 17.8623046875 -0.888671875Q16.5703125 -2.10546875 16.5703125 -3.96484375Q16.5703125 -5.1953125 17.158203125 -6.1591796875Q17.74609375 -7.123046875 18.8056640625 -7.6357421875Q19.865234375 -8.1484375 21.861328125 -8.53125Q24.5546875 -9.037109375 25.59375 -9.474609375V-9.857421875Q25.59375 -10.96484375 25.046875 -11.4365234375Q24.5 -11.908203125 22.982421875 -11.908203125Q21.95703125 -11.908203125 21.3828125 -11.5048828125Q20.80859375 -11.1015625 20.453125 -10.08984375ZM25.59375 -6.97265625Q24.85546875 -6.7265625 23.255859375 -6.384765625Q21.65625 -6.04296875 21.1640625 -5.71484375Q20.412109375 -5.181640625 20.412109375 -4.361328125Q20.412109375 -3.5546875 21.013671875 -2.966796875Q21.615234375 -2.37890625 22.544921875 -2.37890625Q23.583984375 -2.37890625 24.52734375 -3.0625Q25.224609375 -3.58203125 25.443359375 -4.333984375Q25.59375 -4.826171875 25.59375 -6.20703125ZM31.80078125 -4.142578125 35.65625 -4.73046875Q35.90234375 -3.609375 36.654296875 -3.0283203125Q37.40625 -2.447265625 38.759765625 -2.447265625Q40.25 -2.447265625 41.001953125 -2.994140625Q41.5078125 -3.376953125 41.5078125 -4.01953125Q41.5078125 -4.45703125 41.234375 -4.744140625Q40.947265625 -5.017578125 39.94921875 -5.25Q35.30078125 -6.275390625 34.056640625 -7.123046875Q32.333984375 -8.298828125 32.333984375 -10.390625Q32.333984375 -12.27734375 33.82421875 -13.5625Q35.314453125 -14.84765625 38.4453125 -14.84765625Q41.42578125 -14.84765625 42.875 -13.876953125Q44.32421875 -12.90625 44.87109375 -11.005859375L41.248046875 -10.3359375Q41.015625 -11.18359375 40.3662109375 -11.634765625Q39.716796875 -12.0859375 38.513671875 -12.0859375Q36.99609375 -12.0859375 36.33984375 -11.662109375Q35.90234375 -11.361328125 35.90234375 -10.8828125Q35.90234375 -10.47265625 36.28515625 -10.185546875Q36.8046875 -9.802734375 39.8740234375 -9.10546875Q42.943359375 -8.408203125 44.16015625 -7.396484375Q45.36328125 -6.37109375 45.36328125 -4.5390625Q45.36328125 -2.54296875 43.6953125 -1.107421875Q42.02734375 0.328125 38.759765625 0.328125Q35.79296875 0.328125 34.0634765625 -0.875Q32.333984375 -2.078125 31.80078125 -4.142578125ZM55.384765625 -14.51953125V-11.45703125H52.759765625V-5.60546875Q52.759765625 -3.828125 52.8349609375 -3.5341796875Q52.91015625 -3.240234375 53.1767578125 -3.048828125Q53.443359375 -2.857421875 53.826171875 -2.857421875Q54.359375 -2.857421875 55.37109375 -3.2265625L55.69921875 -0.24609375Q54.359375 0.328125 52.6640625 0.328125Q51.625 0.328125 50.791015625 -0.0205078125Q49.95703125 -0.369140625 49.5673828125 -0.9228515625Q49.177734375 -1.4765625 49.02734375 -2.419921875Q48.904296875 -3.08984375 48.904296875 -5.126953125V-11.45703125H47.140625V-14.51953125H48.904296875V-17.404296875L52.759765625 -19.646484375V-14.51953125ZM57.6953125 0.95703125 62.083984375 1.490234375Q62.193359375 2.255859375 62.58984375 2.54296875Q63.13671875 2.953125 64.3125 2.953125Q65.81640625 2.953125 66.568359375 2.501953125Q67.07421875 2.201171875 67.333984375 1.53125Q67.51171875 1.052734375 67.51171875 -0.232421875V-2.3515625Q65.7890625 0.0 63.1640625 0.0Q60.23828125 0.0 58.529296875 -2.474609375Q57.189453125 -4.4296875 57.189453125 -7.341796875Q57.189453125 -10.9921875 58.9462890625 -12.919921875Q60.703125 -14.84765625 63.314453125 -14.84765625Q66.0078125 -14.84765625 67.7578125 -12.482421875V-14.51953125H71.353515625V-1.490234375Q71.353515625 1.080078125 70.9296875 2.3515625Q70.505859375 3.623046875 69.740234375 4.34765625Q68.974609375 5.072265625 67.6962890625 5.482421875Q66.41796875 5.892578125 64.462890625 5.892578125Q60.771484375 5.892578125 59.2265625 4.6279296875Q57.681640625 3.36328125 57.681640625 1.421875Q57.681640625 1.23046875 57.6953125 0.95703125ZM61.126953125 -7.560546875Q61.126953125 -5.25 62.0224609375 -4.1767578125Q62.91796875 -3.103515625 64.23046875 -3.103515625Q65.638671875 -3.103515625 66.609375 -4.2041015625Q67.580078125 -5.3046875 67.580078125 -7.46484375Q67.580078125 -9.720703125 66.650390625 -10.814453125Q65.720703125 -11.908203125 64.298828125 -11.908203125Q62.91796875 -11.908203125 62.0224609375 -10.8349609375Q61.126953125 -9.76171875 61.126953125 -7.560546875ZM77.861328125 0.0 73.267578125 -14.51953125H77.0L79.720703125 -5.00390625L82.22265625 -14.51953125H85.927734375L88.34765625 -5.00390625L91.123046875 -14.51953125H94.91015625L90.248046875 0.0H86.556640625L84.0546875 -9.337890625L81.59375 0.0ZM96.93359375 -16.48828125V-20.04296875H100.775390625V-16.48828125ZM96.93359375 0.0V-14.51953125H100.775390625V0.0ZM104.712890625 0.0V-20.04296875H108.5546875V0.0ZM112.4921875 0.0V-20.04296875H116.333984375V0.0ZM120.271484375 -16.48828125V-20.04296875H124.11328125V-16.48828125ZM120.271484375 0.0V-14.51953125H124.11328125V0.0ZM127.763671875 -14.51953125H131.3046875V-12.537109375Q133.205078125 -14.84765625 135.830078125 -14.84765625Q137.224609375 -14.84765625 138.25 -14.2734375Q139.275390625 -13.69921875 139.931640625 -12.537109375Q140.888671875 -13.69921875 141.99609375 -14.2734375Q143.103515625 -14.84765625 144.361328125 -14.84765625Q145.9609375 -14.84765625 147.068359375 -14.1982421875Q148.17578125 -13.548828125 148.72265625 -12.291015625Q149.119140625 -11.361328125 149.119140625 -9.283203125V0.0H145.27734375V-8.298828125Q145.27734375 -10.458984375 144.880859375 -11.087890625Q144.34765625 -11.908203125 143.240234375 -11.908203125Q142.43359375 -11.908203125 141.72265625 -11.416015625Q141.01171875 -10.923828125 140.697265625 -9.9736328125Q140.3828125 -9.0234375 140.3828125 -6.97265625V0.0H136.541015625V-7.95703125Q136.541015625 -10.076171875 136.3359375 -10.69140625Q136.130859375 -11.306640625 135.7001953125 -11.607421875Q135.26953125 -11.908203125 134.53125 -11.908203125Q133.642578125 -11.908203125 132.931640625 -11.4296875Q132.220703125 -10.951171875 131.9130859375 -10.048828125Q131.60546875 -9.146484375 131.60546875 -7.0546875V0.0H127.763671875ZM152.783203125 0.0V-20.04296875H156.625V-12.82421875Q158.40234375 -14.84765625 160.8359375 -14.84765625Q163.48828125 -14.84765625 165.224609375 -12.9267578125Q166.9609375 -11.005859375 166.9609375 -7.41015625Q166.9609375 -3.69140625 165.1904296875 -1.681640625Q163.419921875 0.328125 160.890625 0.328125Q159.646484375 0.328125 158.4365234375 -0.2939453125Q157.2265625 -0.916015625 156.3515625 -2.1328125V0.0ZM156.59765625 -7.57421875Q156.59765625 -5.318359375 157.30859375 -4.23828125Q158.306640625 -2.70703125 159.9609375 -2.70703125Q161.232421875 -2.70703125 162.1279296875 -3.7939453125Q163.0234375 -4.880859375 163.0234375 -7.21875Q163.0234375 -9.70703125 162.12109375 -10.8076171875Q161.21875 -11.908203125 159.810546875 -11.908203125Q158.4296875 -11.908203125 157.513671875 -10.8349609375Q156.59765625 -9.76171875 156.59765625 -7.57421875ZM179.607421875 0.0V-2.173828125Q178.814453125 -1.01171875 177.5224609375 -0.341796875Q176.23046875 0.328125 174.794921875 0.328125Q173.33203125 0.328125 172.169921875 -0.314453125Q171.0078125 -0.95703125 170.48828125 -2.119140625Q169.96875 -3.28125 169.96875 -5.33203125V-14.51953125H173.810546875V-7.84765625Q173.810546875 -4.78515625 174.0224609375 -4.0947265625Q174.234375 -3.404296875 174.794921875 -3.0009765625Q175.35546875 -2.59765625 176.216796875 -2.59765625Q177.201171875 -2.59765625 177.98046875 -3.1376953125Q178.759765625 -3.677734375 179.046875 -4.4775390625Q179.333984375 -5.27734375 179.333984375 -8.39453125V-14.51953125H183.17578125V0.0ZM190.83203125 0.0H186.990234375V-14.51953125H190.55859375V-12.455078125Q191.474609375 -13.91796875 192.2060546875 -14.3828125Q192.9375 -14.84765625 193.8671875 -14.84765625Q195.1796875 -14.84765625 196.396484375 -14.123046875L195.20703125 -10.7734375Q194.236328125 -11.40234375 193.40234375 -11.40234375Q192.595703125 -11.40234375 192.03515625 -10.9580078125Q191.474609375 -10.513671875 191.1533203125 -9.3515625Q190.83203125 -8.189453125 190.83203125 -4.484375ZM196.232421875 -14.51953125H200.3203125L203.79296875 -4.2109375L207.18359375 -14.51953125H211.162109375L206.03515625 -0.546875L205.119140625 1.982421875Q204.61328125 3.25390625 204.1552734375 3.923828125Q203.697265625 4.59375 203.1025390625 5.0107421875Q202.5078125 5.427734375 201.6396484375 5.66015625Q200.771484375 5.892578125 199.677734375 5.892578125Q198.5703125 5.892578125 197.50390625 5.66015625L197.162109375 2.65234375Q198.064453125 2.830078125 198.7890625 2.830078125Q200.12890625 2.830078125 200.771484375 2.0439453125Q201.4140625 1.2578125 201.755859375 0.041015625ZM213.513671875 -14.51953125H217.095703125V-12.38671875Q217.79296875 -13.48046875 218.982421875 -14.1640625Q220.171875 -14.84765625 221.62109375 -14.84765625Q224.150390625 -14.84765625 225.9140625 -12.865234375Q227.677734375 -10.8828125 227.677734375 -7.341796875Q227.677734375 -3.705078125 225.900390625 -1.6884765625Q224.123046875 0.328125 221.59375 0.328125Q220.390625 0.328125 219.4130859375 -0.150390625Q218.435546875 -0.62890625 217.35546875 -1.791015625V5.5234375H213.513671875ZM217.314453125 -7.505859375Q217.314453125 -5.05859375 218.28515625 -3.8896484375Q219.255859375 -2.720703125 220.650390625 -2.720703125Q221.990234375 -2.720703125 222.87890625 -3.7939453125Q223.767578125 -4.8671875 223.767578125 -7.314453125Q223.767578125 -9.59765625 222.8515625 -10.705078125Q221.935546875 -11.8125 220.58203125 -11.8125Q219.173828125 -11.8125 218.244140625 -10.7255859375Q217.314453125 -9.638671875 217.314453125 -7.505859375ZM230.7265625 0.0V-20.04296875H234.568359375V0.0ZM248.0625 0.0V-2.173828125Q247.26953125 -1.01171875 245.9775390625 -0.341796875Q244.685546875 0.328125 243.25 0.328125Q241.787109375 0.328125 240.625 -0.314453125Q239.462890625 -0.95703125 238.943359375 -2.119140625Q238.423828125 -3.28125 238.423828125 -5.33203125V-14.51953125H242.265625V-7.84765625Q242.265625 -4.78515625 242.4775390625 -4.0947265625Q242.689453125 -3.404296875 243.25 -3.0009765625Q243.810546875 -2.59765625 244.671875 -2.59765625Q245.65625 -2.59765625 246.435546875 -3.1376953125Q247.21484375 -3.677734375 247.501953125 -4.4775390625Q247.7890625 -5.27734375 247.7890625 -8.39453125V-14.51953125H251.630859375V0.0ZM255.322265625 -14.51953125H258.86328125V-12.537109375Q260.763671875 -14.84765625 263.388671875 -14.84765625Q264.783203125 -14.84765625 265.80859375 -14.2734375Q266.833984375 -13.69921875 267.490234375 -12.537109375Q268.447265625 -13.69921875 269.5546875 -14.2734375Q270.662109375 -14.84765625 271.919921875 -14.84765625Q273.51953125 -14.84765625 274.626953125 -14.1982421875Q275.734375 -13.548828125 276.28125 -12.291015625Q276.677734375 -11.361328125 276.677734375 -9.283203125V0.0H272.8359375V-8.298828125Q272.8359375 -10.458984375 272.439453125 -11.087890625Q271.90625 -11.908203125 270.798828125 -11.908203125Q269.9921875 -11.908203125 269.28125 -11.416015625Q268.5703125 -10.923828125 268.255859375 -9.9736328125Q267.94140625 -9.0234375 267.94140625 -6.97265625V0.0H264.099609375V-7.95703125Q264.099609375 -10.076171875 263.89453125 -10.69140625Q263.689453125 -11.306640625 263.2587890625 -11.607421875Q262.828125 -11.908203125 262.08984375 -11.908203125Q261.201171875 -11.908203125 260.490234375 -11.4296875Q259.779296875 -10.951171875 259.4716796875 -10.048828125Q259.1640625 -9.146484375 259.1640625 -7.0546875V0.0H255.322265625ZM280.341796875 0.0V-20.04296875H284.18359375V-12.82421875Q285.9609375 -14.84765625 288.39453125 -14.84765625Q291.046875 -14.84765625 292.783203125 -12.9267578125Q294.51953125 -11.005859375 294.51953125 -7.41015625Q294.51953125 -3.69140625 292.7490234375 -1.681640625Q290.978515625 0.328125 288.44921875 0.328125Q287.205078125 0.328125 285.9951171875 -0.2939453125Q284.78515625 -0.916015625 283.91015625 -2.1328125V0.0ZM284.15625 -7.57421875Q284.15625 -5.318359375 284.8671875 -4.23828125Q285.865234375 -2.70703125 287.51953125 -2.70703125Q288.791015625 -2.70703125 289.6865234375 -3.7939453125Q290.58203125 -4.880859375 290.58203125 -7.21875Q290.58203125 -9.70703125 289.6796875 -10.8076171875Q288.77734375 -11.908203125 287.369140625 -11.908203125Q285.98828125 -11.908203125 285.072265625 -10.8349609375Q284.15625 -9.76171875 284.15625 -7.57421875ZM297.609375 -16.48828125V-20.04296875H301.451171875V-16.48828125ZM297.609375 0.0V-14.51953125H301.451171875V0.0ZM318.595703125 0.0H314.75390625V-7.41015625Q314.75390625 -9.76171875 314.5078125 -10.4521484375Q314.26171875 -11.142578125 313.7080078125 -11.525390625Q313.154296875 -11.908203125 312.375 -11.908203125Q311.376953125 -11.908203125 310.583984375 -11.361328125Q309.791015625 -10.814453125 309.4970703125 -9.912109375Q309.203125 -9.009765625 309.203125 -6.576171875V0.0H305.361328125V-14.51953125H308.9296875V-12.38671875Q310.830078125 -14.84765625 313.71484375 -14.84765625Q314.986328125 -14.84765625 316.0390625 -14.3896484375Q317.091796875 -13.931640625 317.6318359375 -13.220703125Q318.171875 -12.509765625 318.3837890625 -11.607421875Q318.595703125 -10.705078125 318.595703125 -9.0234375ZM322.13671875 0.95703125 326.525390625 1.490234375Q326.634765625 2.255859375 327.03125 2.54296875Q327.578125 2.953125 328.75390625 2.953125Q330.2578125 2.953125 331.009765625 2.501953125Q331.515625 2.201171875 331.775390625 1.53125Q331.953125 1.052734375 331.953125 -0.232421875V-2.3515625Q330.23046875 0.0 327.60546875 0.0Q324.6796875 0.0 322.970703125 -2.474609375Q321.630859375 -4.4296875 321.630859375 -7.341796875Q321.630859375 -10.9921875 323.3876953125 -12.919921875Q325.14453125 -14.84765625 327.755859375 -14.84765625Q330.44921875 -14.84765625 332.19921875 -12.482421875V-14.51953125H335.794921875V-1.490234375Q335.794921875 1.080078125 335.37109375 2.3515625Q334.947265625 3.623046875 334.181640625 4.34765625Q333.416015625 5.072265625 332.1376953125 5.482421875Q330.859375 5.892578125 328.904296875 5.892578125Q325.212890625 5.892578125 323.66796875 4.6279296875Q322.123046875 3.36328125 322.123046875 1.421875Q322.123046875 1.23046875 322.13671875 0.95703125ZM325.568359375 -7.560546875Q325.568359375 -5.25 326.4638671875 -4.1767578125Q327.359375 -3.103515625 328.671875 -3.103515625Q330.080078125 -3.103515625 331.05078125 -4.2041015625Q332.021484375 -5.3046875 332.021484375 -7.46484375Q332.021484375 -9.720703125 331.091796875 -10.814453125Q330.162109375 -11.908203125 328.740234375 -11.908203125Q327.359375 -11.908203125 326.4638671875 -10.8349609375Q325.568359375 -9.76171875 325.568359375 -7.560546875ZM339.486328125 -14.51953125H343.068359375V-12.38671875Q343.765625 -13.48046875 344.955078125 -14.1640625Q346.14453125 -14.84765625 347.59375 -14.84765625Q350.123046875 -14.84765625 351.88671875 -12.865234375Q353.650390625 -10.8828125 353.650390625 -7.341796875Q353.650390625 -3.705078125 351.873046875 -1.6884765625Q350.095703125 0.328125 347.56640625 0.328125Q346.36328125 0.328125 345.3857421875 -0.150390625Q344.408203125 -0.62890625 343.328125 -1.791015625V5.5234375H339.486328125ZM343.287109375 -7.505859375Q343.287109375 -5.05859375 344.2578125 -3.8896484375Q345.228515625 -2.720703125 346.623046875 -2.720703125Q347.962890625 -2.720703125 348.8515625 -3.7939453125Q349.740234375 -4.8671875 349.740234375 -7.314453125Q349.740234375 -9.59765625 348.82421875 -10.705078125Q347.908203125 -11.8125 346.5546875 -11.8125Q345.146484375 -11.8125 344.216796875 -10.7255859375Q343.287109375 -9.638671875 343.287109375 -7.505859375ZM360.376953125 0.0H356.53515625V-14.51953125H360.103515625V-12.455078125Q361.01953125 -13.91796875 361.7509765625 -14.3828125Q362.482421875 -14.84765625 363.412109375 -14.84765625Q364.724609375 -14.84765625 365.94140625 -14.123046875L364.751953125 -10.7734375Q363.78125 -11.40234375 362.947265625 -11.40234375Q362.140625 -11.40234375 361.580078125 -10.9580078125Q361.01953125 -10.513671875 360.6982421875 -9.3515625Q360.376953125 -8.189453125 360.376953125 -4.484375ZM366.70703125 -7.46484375Q366.70703125 -9.37890625 367.650390625 -11.169921875Q368.59375 -12.9609375 370.3232421875 -13.904296875Q372.052734375 -14.84765625 374.185546875 -14.84765625Q377.48046875 -14.84765625 379.5859375 -12.7080078125Q381.69140625 -10.568359375 381.69140625 -7.30078125Q381.69140625 -4.005859375 379.5654296875 -1.8388671875Q377.439453125 0.328125 374.212890625 0.328125Q372.216796875 0.328125 370.4052734375 -0.57421875Q368.59375 -1.4765625 367.650390625 -3.2197265625Q366.70703125 -4.962890625 366.70703125 -7.46484375ZM370.64453125 -7.259765625Q370.64453125 -5.099609375 371.669921875 -3.951171875Q372.6953125 -2.802734375 374.19921875 -2.802734375Q375.703125 -2.802734375 376.7216796875 -3.951171875Q377.740234375 -5.099609375 377.740234375 -7.287109375Q377.740234375 -9.419921875 376.7216796875 -10.568359375Q375.703125 -11.716796875 374.19921875 -11.716796875Q372.6953125 -11.716796875 371.669921875 -10.568359375Q370.64453125 -9.419921875 370.64453125 -7.259765625ZM383.345703125 -4.142578125 387.201171875 -4.73046875Q387.447265625 -3.609375 388.19921875 -3.0283203125Q388.951171875 -2.447265625 390.3046875 -2.447265625Q391.794921875 -2.447265625 392.546875 -2.994140625Q393.052734375 -3.376953125 393.052734375 -4.01953125Q393.052734375 -4.45703125 392.779296875 -4.744140625Q392.4921875 -5.017578125 391.494140625 -5.25Q386.845703125 -6.275390625 385.6015625 -7.123046875Q383.87890625 -8.298828125 383.87890625 -10.390625Q383.87890625 -12.27734375 385.369140625 -13.5625Q386.859375 -14.84765625 389.990234375 -14.84765625Q392.970703125 -14.84765625 394.419921875 -13.876953125Q395.869140625 -12.90625 396.416015625 -11.005859375L392.79296875 -10.3359375Q392.560546875 -11.18359375 391.9111328125 -11.634765625Q391.26171875 -12.0859375 390.05859375 -12.0859375Q388.541015625 -12.0859375 387.884765625 -11.662109375Q387.447265625 -11.361328125 387.447265625 -10.8828125Q387.447265625 -10.47265625 387.830078125 -10.185546875Q388.349609375 -9.802734375 391.4189453125 -9.10546875Q394.48828125 -8.408203125 395.705078125 -7.396484375Q396.908203125 -6.37109375 396.908203125 -4.5390625Q396.908203125 -2.54296875 395.240234375 -1.107421875Q393.572265625 0.328125 390.3046875 0.328125Q387.337890625 0.328125 385.6083984375 -0.875Q383.87890625 -2.078125 383.345703125 -4.142578125ZM400.271484375 0.0V-3.841796875H404.11328125V0.0ZM420.7109375 -10.2265625 416.923828125 -9.54296875Q416.732421875 -10.677734375 416.0556640625 -11.251953125Q415.37890625 -11.826171875 414.298828125 -11.826171875Q412.86328125 -11.826171875 412.0087890625 -10.8349609375Q411.154296875 -9.84375 411.154296875 -7.51953125Q411.154296875 -4.935546875 412.0224609375 -3.869140625Q412.890625 -2.802734375 414.353515625 -2.802734375Q415.447265625 -2.802734375 416.14453125 -3.4248046875Q416.841796875 -4.046875 417.12890625 -5.564453125L420.90234375 -4.921875Q420.314453125 -2.32421875 418.646484375 -0.998046875Q416.978515625 0.328125 414.17578125 0.328125Q410.990234375 0.328125 409.0966796875 -1.681640625Q407.203125 -3.69140625 407.203125 -7.24609375Q407.203125 -10.841796875 409.103515625 -12.8447265625Q411.00390625 -14.84765625 414.244140625 -14.84765625Q416.896484375 -14.84765625 418.4619140625 -13.7060546875Q420.02734375 -12.564453125 420.7109375 -10.2265625ZM426.494140625 -10.08984375 423.0078125 -10.71875Q423.595703125 -12.82421875 425.03125 -13.8359375Q426.466796875 -14.84765625 429.296875 -14.84765625Q431.8671875 -14.84765625 433.125 -14.2392578125Q434.3828125 -13.630859375 434.8955078125 -12.6943359375Q435.408203125 -11.7578125 435.408203125 -9.255859375L435.3671875 -4.771484375Q435.3671875 -2.857421875 435.5517578125 -1.9482421875Q435.736328125 -1.0390625 436.2421875 0.0H432.44140625Q432.291015625 -0.3828125 432.072265625 -1.134765625Q431.9765625 -1.4765625 431.935546875 -1.5859375Q430.951171875 -0.62890625 429.830078125 -0.150390625Q428.708984375 0.328125 427.4375 0.328125Q425.1953125 0.328125 423.9033203125 -0.888671875Q422.611328125 -2.10546875 422.611328125 -3.96484375Q422.611328125 -5.1953125 423.19921875 -6.1591796875Q423.787109375 -7.123046875 424.8466796875 -7.6357421875Q425.90625 -8.1484375 427.90234375 -8.53125Q430.595703125 -9.037109375 431.634765625 -9.474609375V-9.857421875Q431.634765625 -10.96484375 431.087890625 -11.4365234375Q430.541015625 -11.908203125 429.0234375 -11.908203125Q427.998046875 -11.908203125 427.423828125 -11.5048828125Q426.849609375 -11.1015625 426.494140625 -10.08984375ZM431.634765625 -6.97265625Q430.896484375 -6.7265625 429.296875 -6.384765625Q427.697265625 -6.04296875 427.205078125 -5.71484375Q426.453125 -5.181640625 426.453125 -4.361328125Q426.453125 -3.5546875 427.0546875 -2.966796875Q427.65625 -2.37890625 428.5859375 -2.37890625Q429.625 -2.37890625 430.568359375 -3.0625Q431.265625 -3.58203125 431.484375 -4.333984375Q431.634765625 -4.826171875 431.634765625 -6.20703125Z"/></g></svg>
