<svg xmlns="http://www.w3.org/2000/svg" viewBox="0 0 64 64"><title>Port Perry Plumbing Pros</title><path fill="#263b55" d="M0 0H64V64H0Z"/><g transform="translate(15.99 0)"><path fill="#fff" d="M1.74609375 27.0V9.8203125H7.3125Q10.4765625 9.8203125 11.4375 10.078125Q12.9140625 10.46484375 13.91015625 11.759765625Q14.90625 13.0546875 14.90625 15.10546875Q14.90625 16.6875 14.33203125 17.765625Q13.7578125 18.84375 12.873046875 19.458984375Q11.98828125 20.07421875 11.07421875 20.2734375Q9.83203125 20.51953125 7.4765625 20.51953125H5.21484375V27.0ZM5.21484375 12.7265625V17.6015625H7.11328125Q9.1640625 17.6015625 9.85546875 17.33203125Q10.546875 17.0625 10.939453125 16.48828125Q11.33203125 15.9140625 11.33203125 15.15234375Q11.33203125 14.21484375 10.78125 13.60546875Q10.23046875 12.99609375 9.38671875 12.84375Q8.765625 12.7265625 6.890625 12.7265625ZM17.75390625 27.0V9.8203125H23.3203125Q26.484375 9.8203125 27.4453125 10.078125Q28.921875 10.46484375 29.91796875 11.759765625Q30.9140625 13.0546875 30.9140625 15.10546875Q30.9140625 16.6875 30.33984375 17.765625Q29.765625 18.84375 28.880859375 19.458984375Q27.99609375 20.07421875 27.08203125 20.2734375Q25.83984375 20.51953125 23.484375 20.51953125H21.22265625V27.0ZM21.22265625 12.7265625V17.6015625H23.12109375Q25.171875 17.6015625 25.86328125 17.33203125Q26.5546875 17.0625 26.947265625 16.48828125Q27.33984375 15.9140625 27.33984375 15.15234375Q27.33984375 14.21484375 26.7890625 13.60546875Q26.23828125 12.99609375 25.39453125 12.84375Q24.7734375 12.7265625 22.8984375 12.7265625Z"/></g><g transform="translate(18.72 0)"><path fill="#fff" d="M1.455078125 54.0V39.68359375H6.09375Q8.73046875 39.68359375 9.53125 39.8984375Q10.76171875 40.220703125 11.591796875 41.2998046875Q12.421875 42.37890625 12.421875 44.087890625Q12.421875 45.40625 11.943359375 46.3046875Q11.46484375 47.203125 10.7275390625 47.7158203125Q9.990234375 48.228515625 9.228515625 48.39453125Q8.193359375 48.599609375 6.23046875 48.599609375H4.345703125V54.0ZM4.345703125 42.10546875V46.16796875H5.927734375Q7.63671875 46.16796875 8.212890625 45.943359375Q8.7890625 45.71875 9.1162109375 45.240234375Q9.443359375 44.76171875 9.443359375 44.126953125Q9.443359375 43.345703125 8.984375 42.837890625Q8.525390625 42.330078125 7.822265625 42.203125Q7.3046875 42.10546875 5.7421875 42.10546875ZM15.873046875 54.0V39.80078125H18.763671875V51.587890625H25.951171875V54.0Z"/></g></svg>
