<svg xmlns="http://www.w3.org/2000/svg" viewBox="0 0 64 64"><title>Toronto Plumbing Pros</title><path fill="#17314b" d="M0 0H64V64H0Z"/><g transform="translate(15.34 0)"><path fill="#fff" d="M5.61328125 27.0V12.7265625H0.515625V9.8203125H14.16796875V12.7265625H9.08203125V27.0ZM15.703125 18.515625Q15.703125 15.890625 16.48828125 14.109375Q17.07421875 12.796875 18.087890625 11.75390625Q19.1015625 10.7109375 20.30859375 10.20703125Q21.9140625 9.52734375 24.01171875 9.52734375Q27.80859375 9.52734375 30.087890625 11.8828125Q32.3671875 14.23828125 32.3671875 18.43359375Q32.3671875 22.59375 30.10546875 24.943359375Q27.84375 27.29296875 24.05859375 27.29296875Q20.2265625 27.29296875 17.96484375 24.955078125Q15.703125 22.6171875 15.703125 18.515625ZM19.27734375 18.3984375Q19.27734375 21.31640625 20.625 22.822265625Q21.97265625 24.328125 24.046875 24.328125Q26.12109375 24.328125 27.451171875 22.833984375Q28.78125 21.33984375 28.78125 18.3515625Q28.78125 15.3984375 27.486328125 13.9453125Q26.19140625 12.4921875 24.046875 12.4921875Q21.90234375 12.4921875 20.58984375 13.962890625Q19.27734375 15.43359375 19.27734375 18.3984375Z"/></g><g transform="translate(18.72 0)"><path fill="#fff" d="M1.455078125 54.0V39.68359375H6.09375Q8.73046875 39.68359375 9.53125 39.8984375Q10.76171875 40.220703125 11.591796875 41.2998046875Q12.421875 42.37890625 12.421875 44.087890625Q12.421875 45.40625 11.943359375 46.3046875Q11.46484375 47.203125 10.7275390625 47.7158203125Q9.990234375 48.228515625 9.228515625 48.39453125Q8.193359375 48.599609375 6.23046875 48.599609375H4.345703125V54.0ZM4.345703125 42.10546875V46.16796875H5.927734375Q7.63671875 46.16796875 8.212890625 45.943359375Q8.7890625 45.71875 9.1162109375 45.240234375Q9.443359375 44.76171875 9.443359375 44.126953125Q9.443359375 43.345703125 8.984375 42.837890625Q8.525390625 42.330078125 7.822265625 42.203125Q7.3046875 42.10546875 5.7421875 42.10546875ZM15.873046875 54.0V39.80078125H18.763671875V51.587890625H25.951171875V54.0Z"/></g></svg>
